if (_typeface_js && _typeface_js.loadFace) _typeface_js.loadFace({"glyphs":{"S":{"x_min":47.21875,"x_max":904.171875,"ha":833,"o":"m 755 898 l 786 783 l 870 783 l 904 926 l 873 1041 l 498 1041 b 198 798 365 1041 230 933 l 186 744 l 665 162 l 629 277 b 455 130 625 229 525 126 l 190 144 l 159 258 l 75 258 l 47 143 l 72 0 l 447 0 b 745 243 580 0 715 109 l 758 297 l 280 879 l 316 762 b 488 912 319 813 420 916 l 755 898 "},"/":{"x_min":97.21875,"x_max":731.953125,"ha":833,"o":"m 97 -5 l 601 1106 l 731 1045 l 229 -62 l 97 -5 "},"y":{"x_min":45.0625,"x_max":850,"ha":833,"o":"m 713 694 l 641 636 l 538 173 l 637 272 l 426 143 l 395 143 b 276 298 308 143 256 211 l 354 636 l 311 694 l 175 694 l 151 594 l 195 568 l 133 298 b 172 87 115 218 127 143 b 351 0 212 33 276 2 l 440 0 l 594 150 l 536 176 l 469 -111 l 347 -204 l 316 -204 b 195 -48 230 -204 176 -136 l 52 -48 b 91 -259 34 -129 48 -204 b 270 -347 131 -313 195 -344 l 359 -347 l 605 -138 l 769 568 l 826 594 l 850 694 l 713 694 "},"≈":{"x_min":76.390625,"x_max":848.609375,"ha":833,"o":"m 572 493 l 615 509 l 620 600 l 400 702 l 345 645 l 522 493 l 572 493 m 848 645 l 820 702 l 569 598 l 533 509 l 569 493 l 618 493 l 848 645 m 431 645 l 404 702 l 151 598 l 127 493 l 201 493 l 431 645 m 520 273 l 563 290 l 569 380 l 348 483 l 294 426 l 470 273 l 520 273 m 797 426 l 770 483 l 518 379 l 481 290 l 518 273 l 568 273 l 797 426 m 380 426 l 354 483 l 101 379 l 76 273 l 151 273 l 380 426 "},"Á":{"x_min":18.0625,"x_max":812.5,"ha":833,"o":"m 236 436 l 675 436 l 713 606 l 275 606 l 236 436 m 373 695 b 561 893 395 787 473 868 b 656 695 637 868 679 787 l 506 47 l 573 0 l 693 0 l 716 102 l 670 130 l 801 695 b 755 943 825 794 811 872 b 595 1041 727 979 688 1025 b 388 943 494 1025 433 979 b 229 695 302 872 252 794 l 98 130 l 41 102 l 18 0 l 137 0 l 223 47 l 373 695 m 466 1130 l 500 1062 l 775 1227 l 812 1319 l 781 1383 l 713 1341 l 466 1130 "},"g":{"x_min":5.671875,"x_max":848.609375,"ha":833,"o":"m 545 222 l 416 143 l 395 143 b 238 347 283 143 212 233 b 490 551 265 461 377 551 l 511 551 l 602 473 l 545 222 m 15 1 b 61 -244 -6 -91 9 -179 b 283 -347 111 -311 190 -347 l 359 -347 l 619 -75 l 777 609 l 834 636 l 848 694 l 740 694 l 668 636 l 598 694 l 523 694 b 254 593 430 694 334 658 b 95 347 173 526 118 440 b 140 101 75 254 90 166 b 363 0 191 36 270 0 l 438 0 l 593 150 l 533 173 l 477 -69 l 333 -204 l 316 -204 b 156 0 215 -204 133 -97 l 15 1 "},"–":{"x_min":252.78125,"x_max":580.5625,"ha":833,"o":"m 252 387 l 252 301 l 523 301 l 580 359 l 580 444 l 523 444 l 252 387 "},"ë":{"x_min":85.390625,"x_max":819.453125,"ha":833,"o":"m 751 275 l 819 569 l 758 694 l 522 694 b 252 593 430 694 334 658 b 94 347 172 527 116 440 b 138 101 73 254 88 166 b 362 0 191 36 270 0 l 598 0 l 718 126 l 744 240 l 581 129 l 391 129 b 222 331 269 129 200 209 l 138 275 l 751 275 m 656 419 l 172 419 l 229 362 b 493 565 263 484 370 565 l 655 565 l 761 470 l 695 584 l 656 419 m 415 1040 l 415 854 l 609 854 l 609 973 l 541 1040 l 415 1040 m 98 1040 l 98 854 l 293 854 l 293 973 l 225 1040 l 98 1040 "},"Î":{"x_min":15.28125,"x_max":930.5625,"ha":833,"o":"m 930 1041 l 255 1041 l 237 968 l 351 898 l 483 898 l 308 143 l 176 143 l 31 75 l 15 0 l 690 0 l 705 68 l 648 143 l 480 143 l 654 898 l 823 898 l 915 975 l 930 1041 m 659 1344 l 609 1325 l 604 1227 l 801 1062 l 865 1130 l 713 1344 l 659 1344 m 359 1130 l 393 1062 l 668 1227 l 706 1325 l 665 1344 l 611 1344 l 359 1130 "},"e":{"x_min":85.390625,"x_max":819.453125,"ha":833,"o":"m 751 275 l 819 569 l 758 694 l 522 694 b 252 593 430 694 334 658 b 94 347 172 527 116 440 b 138 101 73 254 88 166 b 362 0 191 36 270 0 l 598 0 l 718 126 l 744 240 l 581 129 l 391 129 b 222 331 269 129 200 209 l 138 275 l 751 275 m 656 419 l 172 419 l 229 362 b 493 565 263 484 370 565 l 655 565 l 761 470 l 695 584 l 656 419 "},"Ã":{"x_min":18.0625,"x_max":919.453125,"ha":833,"o":"m 236 436 l 675 436 l 713 606 l 275 606 l 236 436 m 373 695 b 561 893 395 787 473 868 b 656 695 637 868 679 787 l 506 47 l 573 0 l 693 0 l 716 102 l 670 130 l 801 695 b 755 943 825 794 811 872 b 595 1041 727 979 688 1025 b 388 943 494 1025 433 979 b 229 695 302 872 252 794 l 98 130 l 41 102 l 18 0 l 137 0 l 223 47 l 373 695 m 688 1086 l 738 1105 l 744 1202 l 587 1312 l 525 1245 l 634 1086 l 688 1086 m 919 1245 l 887 1312 l 680 1202 l 641 1105 l 683 1086 l 737 1086 l 919 1245 m 627 1245 l 595 1312 l 387 1202 l 361 1086 l 445 1086 l 627 1245 "},"J":{"x_min":55.5625,"x_max":936.109375,"ha":833,"o":"m 341 0 b 481 50 386 0 434 16 b 598 168 522 77 562 118 b 755 522 669 262 725 388 l 847 919 l 915 976 l 936 1069 l 812 1069 l 722 995 l 612 522 b 486 231 586 409 541 308 b 373 143 441 173 400 143 l 318 143 l 200 272 l 276 509 l 219 586 l 150 586 l 55 175 l 231 0 l 341 0 "},"»":{"x_min":161.109375,"x_max":666.671875,"ha":833,"o":"m 666 379 l 647 425 l 550 408 l 383 173 l 451 125 l 666 325 l 666 379 m 454 630 l 386 581 l 550 344 l 647 327 l 666 373 l 666 427 l 454 630 m 444 379 l 425 425 l 327 408 l 161 173 l 229 125 l 444 325 l 444 379 m 231 630 l 163 581 l 327 344 l 425 327 l 444 373 l 444 427 l 231 630 "},"©":{"x_min":77.78125,"x_max":754.171875,"ha":833,"o":"m 497 465 l 565 415 l 565 461 l 519 523 l 401 523 b 279 472 355 523 312 505 b 227 348 245 438 227 395 b 279 226 227 302 245 259 b 401 175 312 193 355 175 l 519 175 l 565 238 l 565 281 l 497 233 l 401 233 b 286 348 337 233 286 284 b 401 465 286 412 337 465 l 497 465 m 683 558 b 600 654 659 598 631 630 b 483 694 563 680 523 694 l 348 694 b 231 654 308 694 268 680 b 148 558 200 630 172 598 b 77 354 102 480 77 433 l 77 340 b 148 136 77 259 102 213 b 231 40 172 95 200 62 b 348 0 268 13 308 0 l 483 0 b 600 40 523 0 563 13 b 683 136 631 62 659 95 b 754 340 729 213 754 259 l 754 354 b 683 558 754 433 729 480 m 659 340 b 601 183 659 275 636 241 b 483 94 570 130 525 94 l 348 94 b 230 183 306 94 261 130 b 172 340 195 241 172 275 l 172 354 b 230 511 172 419 195 451 b 348 598 262 563 306 598 l 483 598 b 601 511 525 598 569 563 b 659 354 636 451 659 419 l 659 340 "},"˘":{"x_min":261.109375,"x_max":570.828125,"ha":833,"o":"m 415 922 b 261 1083 330 922 261 994 l 376 1083 b 415 1038 376 1058 394 1038 b 454 1083 437 1038 454 1058 l 570 1083 b 415 922 570 994 501 922 "},"≥":{"x_min":37.5,"x_max":788.890625,"ha":833,"o":"m 779 519 l 788 562 l 706 581 l 111 297 l 134 236 l 748 473 l 779 519 m 275 841 l 223 783 l 686 494 l 777 515 l 787 558 l 779 605 l 275 841 m 54 72 l 37 0 l 613 0 l 683 58 l 700 129 l 643 129 l 54 72 "},"ò":{"x_min":84.9375,"x_max":780.953125,"ha":833,"o":"m 626 340 b 544 208 615 290 594 269 b 452 143 509 165 475 143 l 319 143 b 256 208 297 143 272 165 b 236 340 236 269 225 290 l 238 354 b 322 486 251 402 272 425 b 412 550 356 529 390 550 l 547 550 b 608 486 569 550 593 529 b 629 354 629 425 641 402 l 626 340 m 748 558 b 687 654 734 598 713 630 b 580 694 658 680 620 694 l 445 694 b 319 654 405 694 362 680 b 213 558 281 630 247 598 b 95 354 150 480 115 433 l 93 340 b 116 136 75 259 88 213 b 177 40 130 95 151 62 b 286 0 208 13 245 0 l 419 0 b 545 40 459 0 504 13 b 651 136 583 62 619 95 b 769 340 715 213 751 259 l 772 354 b 748 558 791 433 776 480 m 501 922 l 452 854 l 216 1019 l 200 1111 l 245 1175 l 304 1133 l 501 922 "},"^":{"x_min":83.328125,"x_max":822.21875,"ha":833,"o":"m 595 1048 l 552 1031 l 547 944 l 738 383 l 822 423 l 647 1048 l 595 1048 m 83 423 l 147 383 l 598 944 l 634 1031 l 598 1048 l 547 1048 l 83 423 "},"«":{"x_min":166.671875,"x_max":672.21875,"ha":833,"o":"m 388 380 l 408 334 l 505 351 l 672 586 l 604 634 l 388 434 l 388 380 m 601 129 l 669 177 l 505 415 l 408 431 l 388 386 l 388 331 l 601 129 m 166 380 l 186 334 l 283 351 l 450 586 l 381 634 l 166 434 l 166 380 m 379 129 l 447 177 l 283 415 l 186 431 l 166 386 l 166 331 l 379 129 "},"D":{"x_min":15.28125,"x_max":830.015625,"ha":833,"o":"m 798 880 b 716 997 779 929 751 969 b 581 1043 677 1027 633 1043 l 513 1043 l 363 1041 l 255 1041 l 231 943 l 277 915 l 95 126 l 37 100 l 15 0 l 181 0 l 266 0 l 341 0 b 497 45 393 0 444 15 b 633 162 544 75 590 113 b 809 522 715 259 777 387 b 798 880 840 655 836 783 m 529 238 b 375 143 475 176 419 143 l 341 143 l 241 143 l 416 900 l 508 900 l 548 900 b 659 804 594 898 634 866 b 665 522 688 729 691 630 b 529 238 640 412 593 313 "},"ÿ":{"x_min":45.0625,"x_max":850,"ha":833,"o":"m 713 694 l 641 636 l 538 173 l 637 272 l 426 143 l 395 143 b 276 298 308 143 256 211 l 354 636 l 311 694 l 175 694 l 151 594 l 195 568 l 133 298 b 172 87 115 218 127 143 b 351 0 212 33 276 2 l 440 0 l 594 150 l 536 176 l 469 -111 l 347 -204 l 316 -204 b 195 -48 230 -204 176 -136 l 52 -48 b 91 -259 34 -129 48 -204 b 270 -347 131 -313 195 -344 l 359 -347 l 605 -138 l 769 568 l 826 594 l 850 694 l 713 694 m 415 1040 l 415 854 l 609 854 l 609 973 l 541 1040 l 415 1040 m 98 1040 l 98 854 l 293 854 l 293 973 l 225 1040 l 98 1040 "},"í":{"x_min":15.28125,"x_max":711.109375,"ha":833,"o":"m 666 144 l 565 116 l 516 143 l 630 634 l 586 694 l 244 694 l 220 594 l 470 568 l 372 143 l 302 111 l 106 144 l 34 84 l 15 1 l 73 1 l 240 1 l 354 1 l 418 29 l 470 1 l 584 1 l 633 1 l 691 1 l 711 84 l 666 144 m 206 922 l 255 854 l 491 1019 l 508 1111 l 462 1175 l 404 1133 l 206 922 "},"ˆ":{"x_min":162.5,"x_max":668.0625,"ha":833,"o":"m 412 1122 l 366 1102 l 383 1005 l 619 840 l 668 908 l 466 1122 l 412 1122 m 162 908 l 211 840 l 447 1005 l 463 1102 l 418 1122 l 363 1122 l 162 908 "},"w":{"x_min":108.328125,"x_max":851.390625,"ha":833,"o":"m 643 637 l 538 187 l 597 254 b 502 188 595 261 537 229 b 431 259 487 219 469 247 l 465 177 l 543 511 l 497 569 l 412 569 l 322 177 l 394 259 b 290 188 351 247 319 219 b 226 254 275 229 230 261 l 254 187 l 358 637 l 312 694 l 176 694 l 154 595 l 197 568 l 108 183 b 190 0 198 162 211 94 b 191 0 190 0 190 0 l 305 0 l 312 25 b 345 104 319 51 329 77 b 369 137 352 115 359 127 b 388 155 375 144 383 152 b 395 148 390 155 394 150 b 404 130 398 143 401 137 b 411 84 408 116 409 101 b 408 36 411 69 411 52 l 404 15 l 402 5 b 402 0 402 4 401 0 b 411 0 401 -1 409 0 l 518 0 b 681 183 538 94 579 148 l 770 569 l 829 595 l 851 694 l 713 694 l 643 637 "},"$":{"x_min":47.21875,"x_max":904.171875,"ha":833,"o":"m 680 1111 l 536 1111 l 261 -83 l 405 -83 l 680 1111 m 755 898 l 786 783 l 870 783 l 904 926 l 873 1041 l 498 1041 b 198 798 365 1041 230 933 l 186 744 l 665 162 l 629 277 b 455 130 625 229 525 126 l 190 144 l 159 258 l 75 258 l 47 143 l 72 0 l 447 0 b 745 243 580 0 715 109 l 758 297 l 280 879 l 316 762 b 488 912 319 813 420 916 l 755 898 "},"\\":{"x_min":87.5,"x_max":743.0625,"ha":833,"o":"m 87 1038 l 613 -59 l 743 2 l 216 1100 l 87 1038 "},"Ì":{"x_min":15.28125,"x_max":930.5625,"ha":833,"o":"m 930 1041 l 255 1041 l 237 968 l 351 898 l 483 898 l 308 143 l 176 143 l 31 75 l 15 0 l 690 0 l 705 68 l 648 143 l 480 143 l 654 898 l 823 898 l 915 975 l 930 1041 m 761 1130 l 697 1062 l 500 1227 l 504 1319 l 565 1383 l 613 1341 l 761 1130 "},"’":{"x_min":430.5625,"x_max":650,"ha":833,"o":"m 511 1041 l 430 697 l 497 697 l 586 766 l 650 1041 l 511 1041 "},"-":{"x_min":211.109375,"x_max":622.21875,"ha":833,"o":"m 211 387 l 211 301 l 565 301 l 622 359 l 622 444 l 565 444 l 211 387 "},"Q":{"x_min":94.734375,"x_max":851.296875,"ha":833,"o":"m 829 906 b 768 1002 815 947 794 979 b 661 1043 738 1029 701 1043 l 526 1043 b 400 1002 486 1043 443 1029 b 294 906 362 979 327 947 b 158 619 230 829 181 726 l 112 423 b 116 136 87 315 88 213 b 177 40 130 95 151 62 b 286 0 208 13 245 0 l 420 0 b 580 65 472 0 529 22 l 495 80 l 558 0 l 650 0 l 729 65 l 698 105 l 620 175 l 587 61 l 651 136 b 788 423 715 213 763 315 l 834 619 b 829 906 858 726 856 829 m 645 423 b 544 208 626 340 590 263 l 558 223 l 409 356 l 330 293 l 468 115 l 470 147 b 452 143 462 144 458 143 l 319 143 b 256 208 297 143 272 165 b 255 423 237 263 237 340 l 301 619 b 401 834 320 702 355 779 b 494 898 436 877 470 898 l 627 898 b 688 834 650 898 673 877 b 690 619 709 779 709 702 l 645 423 "},"M":{"x_min":15.28125,"x_max":850.71875,"ha":833,"o":"m 477 0 b 618 63 548 0 593 34 b 691 179 643 91 668 130 b 809 520 738 270 780 393 b 850 863 840 650 854 772 b 829 979 848 912 841 951 b 745 1041 808 1030 772 1041 l 672 1041 l 619 941 b 580 1011 611 970 597 993 b 502 1041 559 1030 531 1041 l 427 1041 l 402 993 l 363 1041 l 255 1041 l 231 940 l 276 912 l 95 129 l 38 102 l 15 0 l 134 0 l 226 73 l 406 854 l 483 926 l 456 906 b 502 745 456 906 525 845 l 383 437 l 527 437 l 645 741 b 658 840 652 775 656 809 l 697 877 b 704 800 701 861 704 836 b 666 520 704 722 690 625 b 575 243 643 418 611 320 b 508 134 541 173 520 145 l 477 0 "},"C":{"x_min":114.4375,"x_max":886.109375,"ha":833,"o":"m 769 348 l 452 143 l 394 143 b 284 240 350 143 311 176 b 277 522 255 313 252 412 b 415 805 302 630 351 729 b 569 900 469 866 525 900 l 626 900 l 848 694 l 886 855 l 712 1043 l 602 1043 b 447 997 552 1043 498 1027 b 311 880 400 969 354 929 b 134 522 229 783 166 656 b 145 162 104 387 108 259 b 227 45 165 113 193 75 b 362 0 265 15 312 0 l 472 0 l 731 188 l 769 348 "},"!":{"x_min":265.28125,"x_max":684.71875,"ha":833,"o":"m 563 1043 l 490 984 l 333 301 l 454 301 l 670 984 l 684 1043 l 563 1043 m 301 158 l 265 0 l 445 0 l 468 100 l 422 158 l 301 158 "},"È":{"x_min":15.28125,"x_max":930.5625,"ha":833,"o":"m 930 1041 l 255 1041 l 231 940 l 276 912 l 95 129 l 38 102 l 15 0 l 690 0 l 705 68 l 648 143 l 238 130 l 330 525 l 626 525 l 718 600 l 734 668 l 363 668 l 419 911 l 823 898 l 915 975 l 930 1041 "},"{":{"x_min":243.0625,"x_max":858.328125,"ha":833,"o":"m 319 597 l 454 597 l 555 1040 l 562 1041 l 556 1041 l 627 1100 l 813 1100 l 858 1041 l 841 970 l 669 970 l 581 590 l 511 531 l 554 473 l 462 72 l 634 72 l 618 1 l 547 -58 l 361 -58 l 316 1 l 423 468 l 288 468 l 243 530 l 319 597 "},"X":{"x_min":51.390625,"x_max":902.78125,"ha":833,"o":"m 688 70 l 555 0 l 251 970 l 386 1041 l 688 70 m 902 965 l 154 0 l 51 76 l 801 1041 l 902 965 "},"ô":{"x_min":84.9375,"x_max":780.953125,"ha":833,"o":"m 626 340 b 544 208 615 290 594 269 b 452 143 509 165 475 143 l 319 143 b 256 208 297 143 272 165 b 236 340 236 269 225 290 l 238 354 b 322 486 251 402 272 425 b 412 550 356 529 390 550 l 547 550 b 608 486 569 550 593 529 b 629 354 629 425 641 402 l 626 340 m 748 558 b 687 654 734 598 713 630 b 580 694 658 680 620 694 l 445 694 b 319 654 405 694 362 680 b 213 558 281 630 247 598 b 95 354 150 480 115 433 l 93 340 b 116 136 75 259 88 213 b 177 40 130 95 151 62 b 286 0 208 13 245 0 l 419 0 b 545 40 459 0 504 13 b 651 136 583 62 619 95 b 769 340 715 213 751 259 l 772 354 b 748 558 791 433 776 480 m 350 1122 l 304 1102 l 320 1005 l 556 840 l 605 908 l 404 1122 l 350 1122 m 100 908 l 148 840 l 384 1005 l 401 1102 l 355 1122 l 301 1122 l 100 908 "},"#":{"x_min":22.21875,"x_max":915.28125,"ha":833,"o":"m 22 34 l 540 1006 l 643 973 l 126 1 l 22 34 m 295 34 l 812 1006 l 915 973 l 398 1 l 295 34 m 215 601 l 241 716 l 855 716 l 829 601 l 215 601 m 79 276 l 105 391 l 720 391 l 694 276 l 79 276 "},"Ê":{"x_min":15.28125,"x_max":930.5625,"ha":833,"o":"m 930 1041 l 255 1041 l 231 940 l 276 912 l 95 129 l 38 102 l 15 0 l 690 0 l 705 68 l 648 143 l 238 130 l 330 525 l 626 525 l 718 600 l 734 668 l 363 668 l 419 911 l 823 898 l 915 975 l 930 1041 "},")":{"x_min":112.5,"x_max":668.28125,"ha":833,"o":"m 112 -63 b 294 -11 170 -65 233 -47 b 447 119 347 19 400 63 b 644 522 540 227 609 370 b 633 926 679 673 676 816 b 541 1056 612 980 579 1025 b 383 1108 497 1093 441 1109 l 352 979 b 506 856 420 981 475 940 b 536 709 525 815 533 763 b 515 522 537 650 530 587 b 450 336 501 456 477 395 b 352 188 420 280 390 230 b 143 66 281 105 208 63 l 112 -63 "},"â":{"x_min":63.4375,"x_max":752.484375,"ha":833,"o":"m 602 466 b 579 519 605 479 606 498 l 577 520 b 455 551 551 543 508 551 b 316 515 402 551 355 538 b 290 498 309 511 302 505 l 220 605 b 263 636 234 616 248 626 b 488 695 330 673 409 695 b 687 640 568 695 638 677 b 741 568 713 619 731 595 b 747 466 754 537 755 501 l 659 86 l 704 58 l 691 1 l 583 1 l 536 58 l 461 1 l 365 1 b 141 59 277 1 197 22 b 77 130 113 79 91 102 b 68 230 62 161 59 195 b 125 331 76 266 95 301 b 222 402 150 359 183 383 b 470 461 294 440 383 461 l 538 461 l 591 419 l 602 466 m 561 283 l 473 318 l 437 318 b 266 279 375 318 315 304 b 211 230 231 262 213 243 b 244 183 208 219 218 200 b 398 144 281 158 334 144 l 433 144 l 536 177 l 561 283 m 350 1122 l 304 1102 l 320 1005 l 556 840 l 605 908 l 404 1122 l 350 1122 m 100 908 l 148 840 l 384 1005 l 401 1102 l 355 1122 l 301 1122 l 100 908 "},"}":{"x_min":125,"x_max":745.828125,"ha":833,"o":"m 700 597 l 565 597 l 666 1040 l 661 1041 l 668 1041 l 622 1100 l 436 1100 l 365 1041 l 348 970 l 520 970 l 433 590 l 476 531 l 405 473 l 313 72 l 141 72 l 125 1 l 169 -58 l 355 -58 l 427 1 l 534 468 l 669 468 l 745 530 l 700 597 "},"Ä":{"x_min":18.0625,"x_max":895.828125,"ha":833,"o":"m 236 436 l 675 436 l 713 606 l 275 606 l 236 436 m 373 695 b 561 893 395 787 473 868 b 656 695 637 868 679 787 l 506 47 l 573 0 l 693 0 l 716 102 l 670 130 l 801 695 b 755 943 825 794 811 872 b 595 1041 727 979 688 1025 b 388 943 494 1025 433 979 b 229 695 302 872 252 794 l 98 130 l 41 102 l 18 0 l 137 0 l 223 47 l 373 695 m 716 1305 l 673 1119 l 868 1119 l 895 1238 l 843 1305 l 716 1305 m 400 1305 l 356 1119 l 551 1119 l 579 1238 l 526 1305 l 400 1305 "},"a":{"x_min":63.4375,"x_max":752.484375,"ha":833,"o":"m 602 466 b 579 519 605 479 606 498 l 577 520 b 455 551 551 543 508 551 b 316 515 402 551 355 538 b 290 498 309 511 302 505 l 220 605 b 263 636 234 616 248 626 b 488 695 330 673 409 695 b 687 640 568 695 638 677 b 741 568 713 619 731 595 b 747 466 754 537 755 501 l 659 86 l 704 58 l 691 1 l 583 1 l 536 58 l 461 1 l 365 1 b 141 59 277 1 197 22 b 77 130 113 79 91 102 b 68 230 62 161 59 195 b 125 331 76 266 95 301 b 222 402 150 359 183 383 b 470 461 294 440 383 461 l 538 461 l 591 419 l 602 466 m 561 283 l 473 318 l 437 318 b 266 279 375 318 315 304 b 211 230 231 262 213 243 b 244 183 208 219 218 200 b 398 144 281 158 334 144 l 433 144 l 536 177 l 561 283 "},"—":{"x_min":100,"x_max":733.328125,"ha":833,"o":"m 100 387 l 100 301 l 676 301 l 733 359 l 733 444 l 676 444 l 100 387 "},"=":{"x_min":93.0625,"x_max":834.71875,"ha":833,"o":"m 161 595 l 144 523 l 748 523 l 818 581 l 834 652 l 777 652 l 161 595 m 109 373 l 93 301 l 697 301 l 766 359 l 783 430 l 726 430 l 109 373 "},"N":{"x_min":15.28125,"x_max":930.5625,"ha":833,"o":"m 930 1041 l 811 1041 l 718 968 l 573 341 l 393 1041 l 255 1043 l 231 940 l 276 912 l 95 129 l 38 102 l 15 0 l 134 0 l 226 73 l 344 588 l 501 0 l 638 0 l 848 912 l 906 940 l 930 1041 "},"˚":{"x_min":248.609375,"x_max":581.9375,"ha":833,"o":"m 415 847 b 581 1013 506 847 581 922 b 415 1180 581 1105 506 1180 b 248 1013 323 1180 248 1105 b 415 847 248 922 323 847 m 415 944 b 345 1013 377 944 345 975 b 415 1083 345 1052 377 1083 b 484 1013 454 1083 484 1052 b 415 944 484 975 454 944 "},"ú":{"x_min":128.390625,"x_max":852.78125,"ha":833,"o":"m 830 595 l 852 695 l 716 695 l 645 637 l 531 147 l 637 259 l 430 144 l 400 144 b 279 298 312 144 259 212 l 358 637 l 313 694 l 177 695 l 155 595 l 198 569 l 136 298 b 175 87 118 219 131 144 b 354 0 215 34 279 4 l 443 0 l 511 58 l 556 0 l 693 0 l 715 100 l 670 127 l 772 568 l 830 595 m 206 922 l 255 854 l 491 1019 l 508 1111 l 462 1175 l 404 1133 l 206 922 "},"⁄":{"x_min":97.21875,"x_max":731.953125,"ha":833,"o":"m 97 -5 l 601 1106 l 731 1045 l 229 -62 l 97 -5 "},"2":{"x_min":16.671875,"x_max":862.015625,"ha":833,"o":"m 154 143 l 202 56 b 290 258 226 161 238 198 b 451 356 320 295 390 356 b 706 465 551 356 627 404 b 854 713 787 527 833 625 b 804 948 873 802 856 886 b 584 1043 754 1008 675 1043 l 475 1043 l 211 852 l 280 748 l 484 900 l 548 900 b 709 713 662 900 734 818 b 473 513 686 609 587 513 b 309 454 412 513 358 484 b 181 343 263 427 222 390 b 16 0 104 250 45 129 l 690 0 l 709 84 l 665 143 l 154 143 "},"ü":{"x_min":98.609375,"x_max":852.78125,"ha":833,"o":"m 830 595 l 852 695 l 716 695 l 645 637 l 531 147 l 637 259 l 430 144 l 400 144 b 279 298 312 144 259 212 l 358 637 l 313 694 l 177 695 l 155 595 l 198 569 l 136 298 b 175 87 118 219 131 144 b 354 0 215 34 279 4 l 443 0 l 511 58 l 556 0 l 693 0 l 715 100 l 670 127 l 772 568 l 830 595 m 415 1040 l 415 854 l 609 854 l 609 973 l 541 1040 l 415 1040 m 98 1040 l 98 854 l 293 854 l 293 973 l 225 1040 l 98 1040 "},"¯":{"x_min":100,"x_max":733.328125,"ha":833,"o":"m 100 1041 l 100 955 l 676 955 l 733 1013 l 733 1098 l 676 1098 l 100 1041 "},"Z":{"x_min":66.671875,"x_max":880.5625,"ha":833,"o":"m 880 902 l 863 1041 l 325 1041 l 231 933 l 197 783 l 298 783 l 386 902 l 880 902 l 863 1041 l 77 188 l 66 138 l 84 0 l 623 0 l 716 108 l 751 258 l 650 258 l 562 140 l 66 138 l 84 0 l 869 854 l 880 902 "},"u":{"x_min":128.390625,"x_max":852.78125,"ha":833,"o":"m 830 595 l 852 695 l 716 695 l 645 637 l 531 147 l 637 259 l 430 144 l 400 144 b 279 298 312 144 259 212 l 358 637 l 313 694 l 177 695 l 155 595 l 198 569 l 136 298 b 175 87 118 219 131 144 b 354 0 215 34 279 4 l 443 0 l 511 58 l 556 0 l 693 0 l 715 100 l 670 127 l 772 568 l 830 595 "},"˜":{"x_min":173.609375,"x_max":694.453125,"ha":833,"o":"m 501 863 l 547 883 l 530 980 l 347 1090 l 300 1023 l 447 863 l 501 863 m 694 1023 l 647 1090 l 466 980 l 450 883 l 495 863 l 550 863 l 694 1023 m 402 1023 l 355 1090 l 173 980 l 173 863 l 258 863 l 402 1023 "},"Ó":{"x_min":94.734375,"x_max":851.296875,"ha":833,"o":"m 829 906 b 768 1002 815 947 794 979 b 661 1043 738 1029 701 1043 l 526 1043 b 400 1002 486 1043 443 1029 b 294 906 362 979 327 947 b 158 619 230 829 181 726 l 112 423 b 116 136 87 315 88 213 b 177 40 130 95 151 62 b 286 0 208 13 245 0 l 419 0 b 545 40 459 0 504 13 b 651 136 583 62 619 95 b 788 423 715 213 763 315 l 834 619 b 829 906 858 726 856 829 m 645 423 b 544 208 626 340 590 263 b 452 143 509 165 475 143 l 319 143 b 256 208 297 143 272 165 b 255 423 237 263 237 340 l 301 619 b 402 834 319 702 356 777 b 493 898 437 877 470 898 l 627 898 b 688 834 650 898 673 877 b 691 619 708 777 709 702 l 645 423 m 466 1130 l 500 1062 l 775 1227 l 812 1319 l 781 1383 l 713 1341 l 466 1130 "},"k":{"x_min":15.28125,"x_max":830.5625,"ha":833,"o":"m 722 118 l 284 465 l 247 294 l 830 583 l 787 705 l 195 419 l 298 387 l 436 984 l 391 1043 l 255 1043 l 231 943 l 277 915 l 95 127 l 37 100 l 15 0 l 151 0 l 222 58 l 294 370 l 181 344 l 612 0 l 722 118 "},"ˇ":{"x_min":161.109375,"x_max":666.671875,"ha":833,"o":"m 418 863 l 463 883 l 447 980 l 209 1147 l 161 1079 l 363 863 l 418 863 m 666 1079 l 618 1147 l 383 980 l 366 883 l 412 863 l 466 863 l 666 1079 "},"Ù":{"x_min":148.90625,"x_max":933.328125,"ha":833,"o":"m 234 943 l 280 916 l 166 425 b 170 136 141 316 143 213 b 231 40 184 95 205 63 b 340 1 262 15 300 1 l 372 1 b 497 40 412 1 455 15 b 602 136 534 63 569 95 b 740 425 666 213 715 316 l 854 916 l 909 943 l 933 1041 l 812 1041 l 720 968 l 595 425 b 495 208 576 340 541 265 b 405 144 461 166 427 144 l 373 144 b 311 208 351 144 326 166 b 309 425 293 265 290 340 l 434 968 l 379 1041 l 258 1041 l 234 943 m 761 1130 l 697 1062 l 500 1227 l 504 1319 l 565 1383 l 613 1341 l 761 1130 "},"€":{"x_min":97.21875,"x_max":900,"ha":833,"o":"m 162 626 l 145 554 l 733 554 l 802 612 l 819 683 l 762 683 l 162 626 m 113 418 l 97 345 l 587 345 l 658 404 l 675 475 l 618 475 l 113 418 m 758 297 l 520 143 l 463 143 b 355 240 419 143 380 176 b 347 522 326 313 322 412 b 484 805 372 630 422 729 b 638 900 540 866 594 900 l 695 900 l 862 747 l 900 913 l 781 1043 l 672 1043 b 516 997 622 1043 568 1027 b 380 880 469 969 423 929 b 204 522 298 783 236 656 b 215 162 173 387 177 259 b 297 45 234 113 262 75 b 431 0 334 15 381 0 l 541 0 l 719 131 l 758 297 "},"¢":{"x_min":88.421875,"x_max":822.21875,"ha":833,"o":"m 663 811 l 519 811 l 306 -111 l 451 -111 l 663 811 m 748 248 l 579 143 l 397 143 b 240 347 283 143 213 233 b 491 551 266 461 377 551 l 673 551 l 793 444 l 822 570 l 761 695 l 525 695 b 255 593 433 695 337 659 b 97 347 175 527 119 440 b 141 101 76 255 93 168 b 365 0 194 36 273 0 l 601 0 l 720 126 l 748 248 "},"é":{"x_min":85.390625,"x_max":819.453125,"ha":833,"o":"m 751 275 l 819 569 l 758 694 l 522 694 b 252 593 430 694 334 658 b 94 347 172 527 116 440 b 138 101 73 254 88 166 b 362 0 191 36 270 0 l 598 0 l 718 126 l 744 240 l 581 129 l 391 129 b 222 331 269 129 200 209 l 138 275 l 751 275 m 656 419 l 172 419 l 229 362 b 493 565 263 484 370 565 l 655 565 l 761 470 l 695 584 l 656 419 m 206 922 l 255 854 l 491 1019 l 508 1111 l 462 1175 l 404 1133 l 206 922 "},"s":{"x_min":44.4375,"x_max":826.390625,"ha":833,"o":"m 677 551 l 715 463 l 800 463 l 826 579 l 795 694 l 420 694 b 122 451 287 694 152 586 l 109 397 l 668 169 l 638 269 b 479 130 625 212 550 127 l 193 144 l 155 230 l 70 230 l 44 115 l 75 0 l 450 0 b 748 243 583 0 718 109 l 761 297 l 202 525 l 259 423 b 419 565 270 484 348 569 l 677 551 "},"B":{"x_min":15.28125,"x_max":856.75,"ha":833,"o":"m 705 595 b 797 677 740 618 772 645 b 851 784 825 711 843 747 b 847 891 859 822 858 856 b 791 973 836 922 816 950 b 594 1043 744 1016 675 1041 l 255 1043 l 231 943 l 277 915 l 95 127 l 37 100 l 15 0 l 181 0 l 200 81 l 241 0 l 341 0 b 606 91 433 0 527 33 b 705 194 645 122 677 155 b 762 320 734 234 752 276 b 763 447 772 365 773 406 b 712 548 754 486 737 519 b 679 580 702 561 690 570 l 705 595 m 548 900 b 679 858 604 900 648 886 b 706 784 705 834 712 811 b 644 709 700 756 681 733 b 502 668 604 683 556 669 l 363 668 l 416 900 l 548 900 m 350 144 l 258 211 l 323 497 l 463 497 b 619 320 568 497 641 415 b 375 144 597 223 488 144 l 350 144 "},"…":{"x_min":125,"x_max":708.328125,"ha":833,"o":"m 569 158 l 569 0 l 708 0 l 708 100 l 648 158 l 569 158 m 347 158 l 347 0 l 486 0 l 486 100 l 426 158 l 347 158 m 347 158 l 347 0 l 486 0 l 486 100 l 426 158 l 347 158 m 125 158 l 125 0 l 263 0 l 263 100 l 204 158 l 125 158 m 125 158 l 125 0 l 263 0 l 263 100 l 204 158 l 125 158 "},"?":{"x_min":175,"x_max":861.484375,"ha":833,"o":"m 804 947 b 584 1041 752 1008 675 1041 l 475 1041 l 211 852 l 175 691 l 488 919 l 552 919 b 730 712 680 919 758 830 b 523 513 708 615 626 538 l 450 513 l 366 447 l 333 301 l 465 301 l 484 387 b 695 477 558 397 631 429 b 852 712 776 540 831 623 b 804 947 873 801 856 884 m 306 158 l 270 0 l 437 0 l 459 100 l 413 158 l 306 158 "},"H":{"x_min":15.28125,"x_max":930.5625,"ha":833,"o":"m 930 1041 l 811 1041 l 718 968 l 650 668 l 363 668 l 431 968 l 375 1041 l 255 1041 l 231 940 l 276 912 l 95 129 l 38 102 l 15 0 l 134 0 l 226 73 l 330 525 l 734 525 l 651 675 l 512 73 l 570 0 l 690 0 l 713 102 l 668 129 l 848 912 l 906 940 l 930 1041 "},"î":{"x_min":15.28125,"x_max":711.109375,"ha":833,"o":"m 666 144 l 565 116 l 516 143 l 630 634 l 586 694 l 244 694 l 220 594 l 470 568 l 372 143 l 302 111 l 106 144 l 34 84 l 15 1 l 73 1 l 240 1 l 354 1 l 418 29 l 470 1 l 584 1 l 633 1 l 691 1 l 711 84 l 666 144 m 350 1122 l 304 1102 l 320 1005 l 556 840 l 605 908 l 404 1122 l 350 1122 m 100 908 l 148 840 l 384 1005 l 401 1102 l 355 1122 l 301 1122 l 100 908 "},"c":{"x_min":88.421875,"x_max":822.21875,"ha":833,"o":"m 748 248 l 579 143 l 397 143 b 240 347 283 143 213 233 b 491 551 266 461 377 551 l 673 551 l 793 444 l 822 570 l 761 695 l 525 695 b 255 593 433 695 337 659 b 97 347 175 527 119 440 b 141 101 76 255 93 168 b 365 0 194 36 273 0 l 601 0 l 720 126 l 748 248 "},"¶":{"x_min":77.78125,"x_max":751.390625,"ha":833,"o":"m 348 1041 b 231 1001 308 1041 268 1027 b 148 905 200 977 172 945 b 77 701 102 827 77 780 l 77 687 b 148 483 77 606 102 561 b 231 387 172 443 200 409 b 348 347 268 361 308 347 l 483 347 l 436 462 b 436 925 418 462 412 894 l 455 950 l 483 925 b 583 847 518 925 554 897 b 638 687 618 787 638 745 l 740 687 l 740 701 b 683 905 740 780 729 827 b 600 1001 659 945 631 977 b 483 1041 563 1027 523 1041 l 348 1041 m 359 1041 l 359 -158 l 490 -158 l 490 1041 l 359 1041 m 620 1041 l 620 -158 l 751 -158 l 751 1041 l 620 1041 "},"−":{"x_min":86.109375,"x_max":748.609375,"ha":833,"o":"m 86 387 l 86 301 l 691 301 l 748 359 l 748 444 l 691 444 l 86 387 "},"≠":{"x_min":106.9375,"x_max":820.828125,"ha":833,"o":"m 116 140 l 201 77 l 783 823 l 698 887 l 116 140 m 712 430 l 123 373 l 106 301 l 683 301 l 752 359 l 769 430 l 712 430 m 763 652 l 175 595 l 158 523 l 734 523 l 804 581 l 820 652 l 763 652 "},"•":{"x_min":277.78125,"x_max":555.5625,"ha":833,"o":"m 277 576 l 277 306 l 555 306 l 555 462 l 440 576 l 277 576 "},"¥":{"x_min":98.609375,"x_max":931.953125,"ha":833,"o":"m 812 1041 l 719 968 l 658 698 b 495 616 601 688 543 654 b 372 698 466 654 423 688 l 433 968 l 376 1041 l 256 1041 l 233 940 l 277 912 l 225 684 l 270 569 l 300 569 b 320 566 306 569 312 568 b 359 540 337 561 350 554 l 361 540 b 375 413 391 508 394 468 l 522 413 b 584 531 530 473 545 498 b 698 569 619 561 655 570 l 797 684 l 850 912 l 908 940 l 931 1041 l 812 1041 m 398 508 l 281 0 l 426 0 l 543 508 l 398 508 m 701 500 l 166 443 l 150 370 l 670 370 l 741 429 l 758 500 l 701 500 m 650 277 l 115 220 l 98 148 l 619 148 l 690 206 l 706 277 l 650 277 "},"(":{"x_min":279.984375,"x_max":836.109375,"ha":833,"o":"m 565 -63 b 408 -11 505 -65 451 -47 b 315 119 369 19 337 63 b 302 522 273 227 268 370 b 501 926 337 673 409 816 b 654 1056 550 980 601 1025 b 836 1108 713 1093 777 1109 l 805 979 b 595 856 740 981 666 940 b 500 709 559 815 526 763 b 433 522 470 650 448 587 b 413 336 419 456 411 395 b 441 188 415 280 425 230 b 595 66 473 105 527 63 l 565 -63 "},"U":{"x_min":148.90625,"x_max":933.328125,"ha":833,"o":"m 234 943 l 280 916 l 166 425 b 170 136 141 316 143 213 b 231 40 184 95 205 63 b 340 1 262 15 300 1 l 372 1 b 497 40 412 1 455 15 b 602 136 534 63 569 95 b 740 425 666 213 715 316 l 854 916 l 909 943 l 933 1041 l 812 1041 l 720 968 l 595 425 b 495 208 576 340 541 265 b 405 144 461 166 427 144 l 373 144 b 311 208 351 144 326 166 b 309 425 293 265 290 340 l 434 968 l 379 1041 l 258 1041 l 234 943 "},"Ñ":{"x_min":15.28125,"x_max":930.5625,"ha":833,"o":"m 930 1041 l 811 1041 l 718 968 l 577 355 l 395 1041 l 255 1043 l 231 940 l 276 912 l 95 129 l 38 102 l 15 0 l 134 0 l 226 73 l 344 588 l 501 0 l 638 0 l 848 912 l 906 940 l 930 1041 m 688 1086 l 738 1105 l 744 1202 l 587 1312 l 525 1245 l 634 1086 l 688 1086 m 919 1245 l 887 1312 l 680 1202 l 641 1105 l 683 1086 l 737 1086 l 919 1245 m 627 1245 l 595 1312 l 387 1202 l 361 1086 l 445 1086 l 627 1245 "},"F":{"x_min":15.28125,"x_max":936.109375,"ha":833,"o":"m 261 1069 l 231 940 l 276 912 l 95 129 l 38 102 l 15 0 l 209 0 l 330 525 l 716 525 l 808 600 l 825 668 l 363 668 l 419 911 l 823 898 l 915 975 l 936 1069 l 261 1069 "},":":{"x_min":270.828125,"x_max":583.328125,"ha":833,"o":"m 430 694 l 394 536 l 561 536 l 583 636 l 537 694 l 430 694 m 306 158 l 270 0 l 437 0 l 459 100 l 413 158 l 306 158 "},"Û":{"x_min":148.90625,"x_max":933.328125,"ha":833,"o":"m 234 943 l 280 916 l 166 425 b 170 136 141 316 143 213 b 231 40 184 95 205 63 b 340 1 262 15 300 1 l 372 1 b 497 40 412 1 455 15 b 602 136 534 63 569 95 b 740 425 666 213 715 316 l 854 916 l 909 943 l 933 1041 l 812 1041 l 720 968 l 595 425 b 495 208 576 340 541 265 b 405 144 461 166 427 144 l 373 144 b 311 208 351 144 326 166 b 309 425 293 265 290 340 l 434 968 l 379 1041 l 258 1041 l 234 943 m 659 1344 l 609 1325 l 604 1227 l 801 1062 l 865 1130 l 713 1344 l 659 1344 m 359 1130 l 393 1062 l 668 1227 l 706 1325 l 665 1344 l 611 1344 l 359 1130 "},"*":{"x_min":134.71875,"x_max":700,"ha":833,"o":"m 345 486 l 345 1055 l 488 1055 l 488 486 l 345 486 m 134 851 l 206 976 l 700 691 l 629 566 l 134 851 m 134 691 l 629 976 l 700 851 l 206 566 l 134 691 "},"†":{"x_min":195.828125,"x_max":802.78125,"ha":833,"o":"m 527 1041 l 268 -83 l 398 -83 l 658 1041 l 527 1041 m 745 694 l 212 637 l 195 565 l 716 565 l 786 623 l 802 694 l 745 694 "},"°":{"x_min":241.671875,"x_max":588.890625,"ha":833,"o":"m 415 715 b 588 888 509 715 588 794 b 415 1062 588 983 509 1062 b 241 888 320 1062 241 983 b 415 715 241 794 320 715 m 415 826 b 352 888 380 826 352 852 b 415 951 352 925 380 951 b 477 888 451 951 477 925 b 415 826 477 852 451 826 "},"V":{"x_min":105.5625,"x_max":930.5625,"ha":833,"o":"m 811 1041 l 718 968 l 554 254 b 391 173 498 238 440 211 b 268 254 362 211 316 238 l 431 968 l 375 1041 l 255 1041 l 229 929 l 273 901 l 105 169 b 294 0 200 169 319 111 l 411 0 b 677 169 436 111 583 169 l 845 901 l 904 929 l 930 1041 l 811 1041 "},"0":{"x_min":113.71875,"x_max":830.734375,"ha":833,"o":"m 530 238 b 384 144 462 156 409 144 b 283 238 359 144 312 156 b 279 522 255 313 254 412 b 413 806 304 633 351 730 b 559 900 481 887 534 900 b 661 806 584 900 631 887 b 665 522 688 730 690 633 b 530 238 640 412 593 313 m 801 880 b 723 997 783 930 756 969 b 593 1044 686 1027 643 1044 b 440 997 543 1044 491 1027 b 308 880 393 969 348 930 b 134 522 227 783 166 656 b 143 165 104 388 106 261 b 220 47 161 115 187 76 b 351 1 258 16 301 1 b 504 47 401 1 452 16 b 636 165 551 76 595 115 b 809 522 716 261 777 388 b 801 880 840 656 837 783 "},"”":{"x_min":338.890625,"x_max":795.828125,"ha":833,"o":"m 406 1072 l 338 775 l 418 775 l 491 833 l 545 1072 l 406 1072 m 656 1072 l 588 775 l 668 775 l 741 833 l 795 1072 l 656 1072 "},"@":{"x_min":19.53125,"x_max":691.671875,"ha":833,"o":"m 226 411 b 298 520 233 445 262 488 b 433 579 327 547 375 579 b 548 543 486 579 526 566 b 568 466 568 523 575 497 l 554 406 l 533 461 l 473 461 b 309 390 416 461 359 436 b 216 230 263 347 230 290 b 236 70 202 170 209 113 b 368 0 263 25 311 0 l 427 0 l 475 56 l 519 0 l 576 0 l 683 466 b 644 631 698 530 684 590 b 459 695 602 673 540 695 b 229 597 380 695 298 661 b 109 411 169 543 125 473 l 25 41 b 27 -59 16 8 18 -26 b 79 -145 37 -90 55 -120 b 308 -229 131 -200 213 -229 b 558 -169 405 -229 491 -208 b 691 0 627 -129 675 -66 l 576 0 b 334 -113 559 -68 463 -113 b 173 -56 268 -113 209 -94 b 140 40 140 -22 134 16 l 226 411 m 394 115 b 341 145 372 115 354 126 b 331 230 327 168 325 197 b 380 315 338 262 356 293 b 447 344 401 334 425 344 l 465 344 l 530 304 l 495 154 l 413 115 l 394 115 "},"ö":{"x_min":84.9375,"x_max":780.953125,"ha":833,"o":"m 626 340 b 544 208 615 290 594 269 b 452 143 509 165 475 143 l 319 143 b 256 208 297 143 272 165 b 236 340 236 269 225 290 l 238 354 b 322 486 251 402 272 425 b 412 550 356 529 390 550 l 547 550 b 608 486 569 550 593 529 b 629 354 629 425 641 402 l 626 340 m 748 558 b 687 654 734 598 713 630 b 580 694 658 680 620 694 l 445 694 b 319 654 405 694 362 680 b 213 558 281 630 247 598 b 95 354 150 480 115 433 l 93 340 b 116 136 75 259 88 213 b 177 40 130 95 151 62 b 286 0 208 13 245 0 l 419 0 b 545 40 459 0 504 13 b 651 136 583 62 619 95 b 769 340 715 213 751 259 l 772 354 b 748 558 791 433 776 480 m 415 1040 l 415 854 l 609 854 l 609 973 l 541 1040 l 415 1040 m 98 1040 l 98 854 l 293 854 l 293 973 l 225 1040 l 98 1040 "},"i":{"x_min":15.28125,"x_max":711.109375,"ha":833,"o":"m 666 144 l 565 116 l 516 143 l 630 634 l 586 694 l 244 694 l 220 594 l 470 568 l 372 143 l 302 111 l 106 144 l 34 84 l 15 1 l 73 1 l 240 1 l 354 1 l 418 29 l 470 1 l 584 1 l 633 1 l 691 1 l 711 84 l 666 144 m 677 900 l 697 984 l 651 1043 l 543 1043 l 523 956 l 618 900 l 677 900 "},"≤":{"x_min":50,"x_max":843.0625,"ha":833,"o":"m 50 58 l 94 0 l 670 0 l 687 72 l 123 129 l 66 129 l 50 58 m 175 558 l 165 515 l 248 495 l 843 781 l 822 843 l 205 604 l 175 558 m 681 237 l 731 295 l 268 583 l 176 562 l 166 519 l 175 472 l 681 237 "},"Õ":{"x_min":94.734375,"x_max":919.453125,"ha":833,"o":"m 829 906 b 768 1002 815 947 794 979 b 661 1043 738 1029 701 1043 l 526 1043 b 400 1002 486 1043 443 1029 b 294 906 362 979 327 947 b 158 619 230 829 181 726 l 112 423 b 116 136 87 315 88 213 b 177 40 130 95 151 62 b 286 0 208 13 245 0 l 419 0 b 545 40 459 0 504 13 b 651 136 583 62 619 95 b 788 423 715 213 763 315 l 834 619 b 829 906 858 726 856 829 m 645 423 b 544 208 626 340 590 263 b 452 143 509 165 475 143 l 319 143 b 256 208 297 143 272 165 b 255 423 237 263 237 340 l 301 619 b 402 834 319 702 356 777 b 493 898 437 877 470 898 l 627 898 b 688 834 650 898 673 877 b 691 619 708 777 709 702 l 645 423 m 688 1086 l 738 1105 l 744 1202 l 587 1312 l 525 1245 l 634 1086 l 688 1086 m 919 1245 l 887 1312 l 680 1202 l 641 1105 l 683 1086 l 737 1086 l 919 1245 m 627 1245 l 595 1312 l 387 1202 l 361 1086 l 445 1086 l 627 1245 "},"]":{"x_min":133.328125,"x_max":758.328125,"ha":833,"o":"m 758 1041 l 712 1100 l 443 1100 l 373 1041 l 356 970 l 612 970 l 404 70 l 148 70 l 133 0 l 176 -58 l 445 -58 l 518 0 l 758 1041 "},"m":{"x_min":15.28125,"x_max":787.671875,"ha":833,"o":"m 504 -1 b 675 118 538 -1 605 13 b 769 347 716 180 750 261 b 780 575 788 431 793 513 b 666 694 758 679 700 694 l 591 694 l 538 594 b 500 663 530 623 516 645 b 422 694 479 683 452 694 l 348 694 l 322 647 l 283 695 l 175 695 l 152 597 l 197 569 l 95 126 l 37 100 l 15 0 l 151 0 l 230 91 l 319 480 l 394 551 l 388 551 b 394 397 388 551 416 498 l 318 191 l 477 226 l 565 391 b 579 494 572 426 577 461 l 638 551 l 623 551 b 637 511 626 547 633 536 b 626 347 644 468 641 409 b 561 181 612 283 588 225 l 534 140 l 504 -1 "},"8":{"x_min":74.8125,"x_max":870.53125,"ha":833,"o":"m 404 852 b 559 900 450 883 502 900 b 691 852 616 900 661 883 b 720 762 719 825 729 797 b 650 670 712 726 690 698 b 495 623 604 640 552 623 b 362 670 438 623 394 640 b 334 762 334 698 326 726 b 404 852 341 797 363 825 m 538 193 b 384 144 493 161 441 144 b 254 193 329 144 284 161 b 225 290 225 222 216 252 b 298 388 234 329 256 359 b 452 437 344 420 395 437 b 583 388 508 437 552 420 b 612 290 612 359 620 329 b 538 193 602 252 580 222 m 701 500 b 665 530 690 511 677 520 b 713 558 681 538 698 548 b 809 647 751 584 783 613 b 863 762 836 683 855 722 b 862 876 873 801 872 840 b 808 965 851 909 833 938 b 593 1043 756 1015 680 1043 b 340 965 504 1043 415 1015 b 245 876 302 938 270 909 b 190 762 218 840 200 801 b 193 647 181 722 181 683 b 247 558 202 613 220 584 b 283 530 258 548 269 538 b 231 500 265 520 248 511 b 137 406 194 473 162 441 b 81 290 109 370 91 331 b 83 173 72 250 72 211 b 136 81 93 140 111 108 b 351 1 187 29 263 1 b 604 81 440 1 529 29 b 700 173 643 108 675 140 b 755 290 727 211 745 250 b 754 406 765 331 763 370 b 701 500 744 441 726 473 "},"R":{"x_min":15.28125,"x_max":861.484375,"ha":833,"o":"m 548 900 b 709 713 662 900 733 816 b 463 527 686 611 577 527 l 331 527 l 416 900 l 508 900 l 548 900 m 255 1043 l 231 943 l 277 915 l 95 126 l 37 100 l 15 0 l 209 0 l 294 368 l 405 368 b 505 268 452 368 483 315 b 516 56 531 215 534 133 l 561 0 l 687 0 l 709 98 l 625 147 l 652 33 b 643 336 687 145 684 255 b 581 413 627 368 606 394 b 695 479 622 429 661 451 b 852 713 777 541 831 625 b 804 948 873 802 856 886 b 594 1043 755 1006 680 1040 l 255 1043 "},"á":{"x_min":63.4375,"x_max":752.484375,"ha":833,"o":"m 602 466 b 579 519 605 479 606 498 l 577 520 b 455 551 551 543 508 551 b 316 515 402 551 355 538 b 290 498 309 511 302 505 l 220 605 b 263 636 234 616 248 626 b 488 695 330 673 409 695 b 687 640 568 695 638 677 b 741 568 713 619 731 595 b 747 466 754 537 755 501 l 659 86 l 704 58 l 691 1 l 583 1 l 536 58 l 461 1 l 365 1 b 141 59 277 1 197 22 b 77 130 113 79 91 102 b 68 230 62 161 59 195 b 125 331 76 266 95 301 b 222 402 150 359 183 383 b 470 461 294 440 383 461 l 538 461 l 591 419 l 602 466 m 561 283 l 473 318 l 437 318 b 266 279 375 318 315 304 b 211 230 231 262 213 243 b 244 183 208 219 218 200 b 398 144 281 158 334 144 l 433 144 l 536 177 l 561 283 "},"×":{"x_min":43.0625,"x_max":825,"ha":833,"o":"m 730 693 l 463 469 l 298 693 l 148 573 l 315 345 l 43 119 l 138 0 l 406 223 l 570 0 l 719 119 l 552 345 l 825 573 l 730 693 "},"o":{"x_min":84.9375,"x_max":780.953125,"ha":833,"o":"m 626 340 b 544 208 615 290 594 269 b 452 143 509 165 475 143 l 319 143 b 256 208 297 143 272 165 b 236 340 236 269 225 290 l 238 354 b 322 486 251 402 272 425 b 412 550 356 529 390 550 l 547 550 b 608 486 569 550 593 529 b 629 354 629 425 641 402 l 626 340 m 748 558 b 687 654 734 598 713 630 b 580 694 658 680 620 694 l 445 694 b 319 654 405 694 362 680 b 213 558 281 630 247 598 b 95 354 150 480 115 433 l 93 340 b 116 136 75 259 88 213 b 177 40 130 95 151 62 b 286 0 208 13 245 0 l 419 0 b 545 40 459 0 504 13 b 651 136 583 62 619 95 b 769 340 715 213 751 259 l 772 354 b 748 558 791 433 776 480 "},"5":{"x_min":58.328125,"x_max":930.5625,"ha":833,"o":"m 930 1043 l 313 1043 l 241 984 l 147 573 l 193 515 l 459 515 b 622 330 573 515 645 433 b 375 144 597 226 488 144 l 311 144 l 172 291 l 58 190 l 233 0 l 343 0 b 608 95 434 1 529 34 b 765 330 688 158 744 241 b 716 563 786 418 768 501 b 493 659 665 625 586 659 l 309 659 l 365 900 l 840 900 l 911 959 l 930 1043 "},"õ":{"x_min":84.9375,"x_max":780.953125,"ha":833,"o":"m 626 340 b 544 208 615 290 594 269 b 452 143 509 165 475 143 l 319 143 b 256 208 297 143 272 165 b 236 340 236 269 225 290 l 238 354 b 322 486 251 402 272 425 b 412 550 356 529 390 550 l 547 550 b 608 486 569 550 593 529 b 629 354 629 425 641 402 l 626 340 m 748 558 b 687 654 734 598 713 630 b 580 694 658 680 620 694 l 445 694 b 319 654 405 694 362 680 b 213 558 281 630 247 598 b 95 354 150 480 115 433 l 93 340 b 116 136 75 259 88 213 b 177 40 130 95 151 62 b 286 0 208 13 245 0 l 419 0 b 545 40 459 0 504 13 b 651 136 583 62 619 95 b 769 340 715 213 751 259 l 772 354 b 748 558 791 433 776 480 m 438 863 l 484 883 l 468 980 l 284 1090 l 237 1023 l 384 863 l 438 863 m 631 1023 l 584 1090 l 404 980 l 387 883 l 433 863 l 487 863 l 631 1023 m 340 1023 l 293 1090 l 111 980 l 111 863 l 195 863 l 340 1023 "},"7":{"x_min":48.609375,"x_max":916.671875,"ha":833,"o":"m 873 1043 l 255 1043 l 236 959 l 280 900 l 844 900 l 777 934 l 741 790 l 823 931 l 48 86 l 152 1 l 869 779 l 916 984 l 873 1043 "},"K":{"x_min":15.28125,"x_max":900,"ha":833,"o":"m 233 379 l 588 2 l 713 119 l 256 597 l 233 379 m 222 445 l 900 925 l 827 1038 l 297 668 l 222 445 m 431 968 l 375 1041 l 255 1041 l 231 940 l 276 912 l 95 129 l 38 102 l 15 0 l 134 0 l 226 75 l 431 968 "},",":{"x_min":286.109375,"x_max":548.609375,"ha":833,"o":"m 286 -15 l 366 -94 l 548 90 l 547 183 l 472 258 l 420 206 l 286 -15 "},"d":{"x_min":85.21875,"x_max":863.890625,"ha":833,"o":"m 666 127 l 863 984 l 734 1043 l 645 1043 l 622 943 l 698 886 l 631 595 l 598 695 l 522 695 b 94 347 330 695 138 538 b 362 0 50 155 170 0 l 438 0 l 506 58 l 580 0 l 688 0 l 711 100 l 666 127 m 416 143 l 394 143 b 237 347 281 143 211 233 b 488 551 263 461 376 551 l 509 551 l 602 472 l 545 222 l 416 143 "},"¨":{"x_min":161.109375,"x_max":672.21875,"ha":833,"o":"m 477 1040 l 477 854 l 672 854 l 672 973 l 604 1040 l 477 1040 m 161 1040 l 161 854 l 355 854 l 355 973 l 287 1040 l 161 1040 "},"Ô":{"x_min":94.734375,"x_max":865.28125,"ha":833,"o":"m 829 906 b 768 1002 815 947 794 979 b 661 1043 738 1029 701 1043 l 526 1043 b 400 1002 486 1043 443 1029 b 294 906 362 979 327 947 b 158 619 230 829 181 726 l 112 423 b 116 136 87 315 88 213 b 177 40 130 95 151 62 b 286 0 208 13 245 0 l 420 0 b 545 40 461 0 504 13 b 651 136 583 62 618 95 b 788 423 715 213 763 315 l 834 619 b 829 906 858 726 856 829 m 645 423 b 544 208 626 340 590 263 b 452 143 509 165 475 143 l 318 143 b 256 208 295 143 272 165 b 255 423 237 263 237 340 l 301 619 b 401 834 319 702 356 777 b 493 898 436 877 470 898 l 627 898 b 688 834 650 898 673 877 b 691 619 708 777 709 702 l 645 423 m 659 1344 l 609 1325 l 604 1227 l 801 1062 l 865 1130 l 713 1344 l 659 1344 m 359 1130 l 393 1062 l 668 1227 l 706 1325 l 665 1344 l 611 1344 l 359 1130 "},"E":{"x_min":15.28125,"x_max":930.5625,"ha":833,"o":"m 930 1041 l 255 1041 l 231 940 l 276 912 l 95 129 l 38 102 l 15 0 l 690 0 l 705 68 l 648 143 l 238 130 l 330 525 l 626 525 l 718 600 l 734 668 l 363 668 l 419 911 l 823 898 l 915 975 l 930 1041 "},"Y":{"x_min":154.171875,"x_max":931.953125,"ha":833,"o":"m 812 1041 l 719 968 l 658 698 b 495 616 601 688 543 654 b 372 698 466 654 423 688 l 433 968 l 376 1041 l 256 1041 l 233 940 l 277 912 l 225 684 l 270 569 l 300 569 b 320 566 306 569 312 568 b 359 540 337 561 350 554 l 361 540 b 375 413 391 508 394 468 l 522 413 b 584 531 530 473 545 498 b 698 569 619 561 655 570 l 797 684 l 850 912 l 908 940 l 931 1041 l 812 1041 m 398 508 l 318 159 l 190 101 l 154 0 l 302 0 l 359 26 l 405 0 l 554 0 l 576 101 l 462 159 l 543 508 l 398 508 "},"\"":{"x_min":337.5,"x_max":795.828125,"ha":833,"o":"m 406 1072 l 337 775 l 416 775 l 490 833 l 545 1072 l 406 1072 m 656 1072 l 587 775 l 666 775 l 740 833 l 795 1072 l 656 1072 "},"‹":{"x_min":298.609375,"x_max":623.609375,"ha":833,"o":"m 309 381 l 316 341 l 409 356 l 623 584 l 575 625 l 320 431 l 309 381 m 459 138 l 526 179 l 420 409 l 336 425 l 311 384 l 298 334 l 459 138 "},"˙":{"x_min":319.4375,"x_max":513.890625,"ha":833,"o":"m 319 1040 l 319 854 l 513 854 l 513 973 l 445 1040 l 319 1040 "},"ê":{"x_min":85.390625,"x_max":819.453125,"ha":833,"o":"m 751 275 l 819 569 l 758 694 l 522 694 b 252 593 430 694 334 658 b 94 347 172 527 116 440 b 138 101 73 254 88 166 b 362 0 191 36 270 0 l 598 0 l 718 126 l 744 240 l 581 129 l 391 129 b 222 331 269 129 200 209 l 138 275 l 751 275 m 656 419 l 172 419 l 229 362 b 493 565 263 484 370 565 l 655 565 l 761 470 l 695 584 l 656 419 m 350 1122 l 304 1102 l 320 1005 l 556 840 l 605 908 l 404 1122 l 350 1122 m 100 908 l 148 840 l 384 1005 l 401 1102 l 355 1122 l 301 1122 l 100 908 "},"Ï":{"x_min":15.28125,"x_max":930.5625,"ha":833,"o":"m 930 1041 l 255 1041 l 237 968 l 351 898 l 483 898 l 308 143 l 176 143 l 31 75 l 15 0 l 690 0 l 705 68 l 648 143 l 480 143 l 654 898 l 823 898 l 915 975 l 930 1041 m 716 1305 l 673 1119 l 868 1119 l 895 1238 l 843 1305 l 716 1305 m 400 1305 l 356 1119 l 551 1119 l 579 1238 l 526 1305 l 400 1305 "},"„":{"x_min":147.21875,"x_max":602.78125,"ha":833,"o":"m 213 238 l 147 -58 l 226 -58 l 300 0 l 352 238 l 213 238 m 463 238 l 397 -58 l 476 -58 l 550 0 l 602 238 l 463 238 "},"Â":{"x_min":18.0625,"x_max":865.28125,"ha":833,"o":"m 236 436 l 675 436 l 713 606 l 275 606 l 236 436 m 373 695 b 561 893 395 787 473 868 b 656 695 637 868 679 787 l 506 47 l 573 0 l 693 0 l 716 102 l 670 130 l 801 695 b 755 943 825 794 811 872 b 595 1041 727 979 688 1025 b 388 943 494 1025 433 979 b 229 695 302 872 252 794 l 98 130 l 41 102 l 18 0 l 137 0 l 223 47 l 373 695 m 659 1344 l 609 1325 l 604 1227 l 801 1062 l 865 1130 l 713 1344 l 659 1344 m 359 1130 l 393 1062 l 668 1227 l 706 1325 l 665 1344 l 611 1344 l 359 1130 "},"´":{"x_min":269.4375,"x_max":570.828125,"ha":833,"o":"m 269 922 l 318 854 l 554 1019 l 570 1111 l 525 1175 l 466 1133 l 269 922 "},"Í":{"x_min":15.28125,"x_max":930.5625,"ha":833,"o":"m 930 1041 l 255 1041 l 237 968 l 351 898 l 483 898 l 308 143 l 176 143 l 31 75 l 15 0 l 690 0 l 705 68 l 648 143 l 480 143 l 654 898 l 823 898 l 915 975 l 930 1041 m 466 1130 l 500 1062 l 775 1227 l 812 1319 l 781 1383 l 713 1341 l 466 1130 "},"ì":{"x_min":15.28125,"x_max":711.109375,"ha":833,"o":"m 666 144 l 565 116 l 516 143 l 630 634 l 586 694 l 244 694 l 220 594 l 470 568 l 372 143 l 302 111 l 106 144 l 34 84 l 15 1 l 73 1 l 240 1 l 354 1 l 418 29 l 470 1 l 584 1 l 633 1 l 691 1 l 711 84 l 666 144 m 501 922 l 452 854 l 216 1019 l 200 1111 l 245 1175 l 304 1133 l 501 922 "},"±":{"x_min":23.609375,"x_max":830.5625,"ha":833,"o":"m 494 902 l 333 208 l 463 208 l 625 902 l 494 902 m 773 638 l 155 581 l 138 509 l 743 509 l 813 568 l 830 638 l 773 638 m 40 72 l 23 0 l 627 0 l 701 72 l 713 129 l 656 129 l 40 72 "},"Ú":{"x_min":148.90625,"x_max":933.328125,"ha":833,"o":"m 234 943 l 280 916 l 166 425 b 170 136 141 316 143 213 b 231 40 184 95 205 63 b 340 1 262 15 300 1 l 372 1 b 497 40 412 1 455 15 b 602 136 534 63 569 95 b 740 425 666 213 715 316 l 854 916 l 909 943 l 933 1041 l 812 1041 l 720 968 l 595 425 b 495 208 576 340 541 265 b 405 144 461 166 427 144 l 373 144 b 311 208 351 144 326 166 b 309 425 293 265 290 340 l 434 968 l 379 1041 l 258 1041 l 234 943 m 466 1130 l 500 1062 l 775 1227 l 812 1319 l 781 1383 l 713 1341 l 466 1130 "},"|":{"x_min":343.0625,"x_max":487.5,"ha":833,"o":"m 343 -83 l 343 1111 l 487 1111 l 487 -83 l 343 -83 "},"§":{"x_min":16.671875,"x_max":886.109375,"ha":833,"o":"m 684 462 l 704 390 l 777 488 l 700 577 l 394 577 b 94 334 261 577 126 469 l 86 294 l 590 88 b 445 -13 562 37 502 -16 l 131 0 l 100 113 l 43 113 l 16 -1 l 47 -116 l 422 -116 b 722 126 555 -116 690 -6 l 730 166 l 225 372 b 370 476 252 425 313 479 l 684 462 m 772 836 l 801 720 l 858 720 l 886 836 l 855 951 l 480 951 b 180 708 347 951 212 843 l 172 668 l 676 462 b 531 359 648 411 588 356 l 218 373 l 258 256 l 508 256 b 808 500 641 256 777 366 l 816 540 l 312 745 b 456 850 338 798 400 852 l 772 836 "},"Ý":{"x_min":154.171875,"x_max":931.953125,"ha":833,"o":"m 812 1041 l 719 968 l 658 698 b 495 616 601 688 543 654 b 372 698 466 654 423 688 l 433 968 l 376 1041 l 256 1041 l 233 940 l 277 912 l 225 684 l 270 569 l 300 569 b 320 566 306 569 312 568 b 359 540 337 561 350 554 l 361 540 b 375 413 391 508 394 468 l 522 413 b 584 531 530 473 545 498 b 698 569 619 561 655 570 l 797 684 l 850 912 l 908 940 l 931 1041 l 812 1041 m 398 508 l 318 159 l 190 101 l 154 0 l 302 0 l 359 26 l 405 0 l 554 0 l 576 101 l 462 159 l 543 508 l 398 508 m 466 1130 l 500 1062 l 775 1227 l 812 1319 l 781 1383 l 713 1341 l 466 1130 "},"b":{"x_min":15.28125,"x_max":777.71875,"ha":833,"o":"m 352 143 l 259 220 l 318 472 l 447 551 l 468 551 b 625 347 581 551 651 461 b 373 143 598 233 487 143 l 352 143 m 425 694 l 408 677 l 268 530 l 329 518 l 436 984 l 391 1041 l 255 1041 l 231 943 l 277 915 l 97 126 l 38 100 l 15 0 l 209 0 l 250 179 l 184 168 l 265 0 l 341 0 b 609 101 434 0 530 36 b 768 347 691 168 747 254 b 723 593 790 440 773 527 b 513 694 676 655 602 691 l 425 694 "},"q":{"x_min":85.390625,"x_max":847.21875,"ha":833,"o":"m 823 594 l 847 694 l 712 694 l 638 636 l 611 515 l 677 526 l 598 694 l 522 694 b 252 593 429 694 334 658 b 94 347 172 526 116 440 b 138 101 73 254 88 166 b 362 0 191 36 269 0 l 437 0 l 595 163 l 533 176 l 425 -290 l 472 -347 l 606 -347 l 629 -248 l 586 -220 l 768 568 l 823 594 m 423 143 l 394 143 b 223 347 280 143 197 233 b 488 551 250 461 375 551 l 518 551 l 669 423 l 619 550 l 526 145 l 634 272 l 423 143 "},"Ö":{"x_min":94.734375,"x_max":895.828125,"ha":833,"o":"m 829 906 b 768 1002 815 947 794 979 b 661 1043 738 1029 701 1043 l 526 1043 b 400 1002 486 1043 443 1029 b 294 906 362 979 327 947 b 158 619 230 829 181 726 l 112 423 b 116 136 87 315 88 213 b 177 40 130 95 151 62 b 286 0 208 13 245 0 l 419 0 b 545 40 459 0 504 13 b 651 136 583 62 619 95 b 788 423 715 213 763 315 l 834 619 b 829 906 858 726 856 829 m 645 423 b 544 208 626 340 590 263 b 452 143 509 165 475 143 l 319 143 b 256 208 297 143 272 165 b 255 423 237 263 237 340 l 301 619 b 402 834 319 702 356 777 b 493 898 437 877 470 898 l 627 898 b 688 834 650 898 673 877 b 691 619 708 777 709 702 l 645 423 m 716 1305 l 673 1119 l 868 1119 l 895 1238 l 843 1305 l 716 1305 m 400 1305 l 356 1119 l 551 1119 l 579 1238 l 526 1305 l 400 1305 "},"z":{"x_min":66.671875,"x_max":800,"ha":833,"o":"m 800 555 l 783 694 l 244 694 l 151 586 l 116 436 l 218 436 l 305 555 l 800 555 l 783 694 l 66 138 l 84 0 l 623 0 l 716 108 l 751 258 l 650 258 l 562 140 l 66 138 l 84 0 l 800 555 "},"™":{"x_min":62.5,"x_max":770.828125,"ha":833,"o":"m 629 1055 l 622 1027 b 611 1038 618 1031 615 1036 b 563 1055 597 1050 580 1055 l 520 1055 l 516 1045 l 506 1055 l 438 1055 l 438 1008 l 461 995 l 461 618 l 438 606 l 438 558 l 506 558 l 541 593 l 541 944 l 568 976 l 563 976 b 580 908 559 976 580 956 l 561 756 l 593 720 l 643 720 l 665 766 l 641 779 l 661 905 b 656 951 661 920 659 937 l 669 966 b 679 933 672 959 676 948 b 691 806 686 897 691 852 b 679 681 691 761 686 716 b 659 631 672 651 665 638 l 659 559 b 729 591 693 551 719 576 b 752 650 738 605 747 626 b 770 806 765 691 770 747 b 752 966 770 865 765 923 b 729 1022 747 987 738 1008 b 673 1055 711 1050 687 1055 l 629 1055 m 188 1013 l 188 631 l 137 605 l 137 558 l 205 558 l 229 569 l 252 558 l 320 558 l 320 605 l 269 631 l 269 1013 l 188 1013 m 93 1055 l 62 993 l 62 923 l 109 923 l 134 976 l 216 976 l 248 976 l 320 976 l 345 923 l 394 923 l 394 993 l 362 1055 l 93 1055 "},"ã":{"x_min":63.4375,"x_max":752.484375,"ha":833,"o":"m 602 466 b 579 519 605 479 606 498 l 577 520 b 455 551 551 543 508 551 b 316 515 402 551 355 538 b 290 498 309 511 302 505 l 220 605 b 263 636 234 616 248 626 b 488 695 330 673 409 695 b 687 640 568 695 638 677 b 741 568 713 619 731 595 b 747 466 754 537 755 501 l 659 86 l 704 58 l 691 1 l 583 1 l 536 58 l 461 1 l 365 1 b 141 59 277 1 197 22 b 77 130 113 79 91 102 b 68 230 62 161 59 195 b 125 331 76 266 95 301 b 222 402 150 359 183 383 b 470 461 294 440 383 461 l 538 461 l 591 419 l 602 466 m 561 283 l 473 318 l 437 318 b 266 279 375 318 315 304 b 211 230 231 262 213 243 b 244 183 208 219 218 200 b 398 144 281 158 334 144 l 433 144 l 536 177 l 561 283 m 438 863 l 484 883 l 468 980 l 284 1090 l 237 1023 l 384 863 l 438 863 m 631 1023 l 584 1090 l 404 980 l 387 883 l 433 863 l 487 863 l 631 1023 m 340 1023 l 293 1090 l 111 980 l 111 863 l 195 863 l 340 1023 "},"®":{"x_min":77.78125,"x_max":754.171875,"ha":833,"o":"m 415 504 b 500 425 463 504 500 469 b 415 345 500 380 463 345 l 358 345 l 358 504 l 398 504 l 415 504 m 559 131 l 559 166 l 498 198 l 502 147 l 544 161 b 511 277 544 204 533 245 b 470 313 498 293 484 305 b 390 327 444 329 416 333 l 413 287 b 516 326 451 286 490 300 b 561 425 545 351 561 387 b 516 525 561 462 545 498 b 419 563 490 548 456 562 l 387 563 l 277 562 l 277 529 l 298 518 l 298 177 l 277 166 l 277 131 l 358 131 l 358 280 l 384 280 l 418 280 b 462 243 431 280 448 262 b 483 159 476 222 483 190 l 511 131 l 559 131 m 683 558 b 600 654 659 598 631 630 b 483 694 563 680 523 694 l 348 694 b 231 654 308 694 268 680 b 148 558 200 630 172 598 b 77 354 102 480 77 433 l 77 340 b 148 136 77 259 102 213 b 231 40 172 95 200 62 b 348 0 268 13 308 0 l 483 0 b 600 40 523 0 563 13 b 683 136 631 62 659 95 b 754 340 729 213 754 259 l 754 354 b 683 558 754 433 729 480 m 659 340 b 601 183 659 275 636 241 b 483 94 570 130 525 94 l 348 94 b 230 183 306 94 261 130 b 172 340 195 241 172 275 l 172 354 b 230 511 172 419 195 451 b 348 598 262 563 306 598 l 483 598 b 601 511 525 598 569 563 b 659 354 636 451 659 419 l 659 340 "},"É":{"x_min":15.28125,"x_max":930.5625,"ha":833,"o":"m 930 1041 l 255 1041 l 231 940 l 276 912 l 95 129 l 38 102 l 15 0 l 690 0 l 705 68 l 648 143 l 238 130 l 330 525 l 626 525 l 718 600 l 734 668 l 363 668 l 419 911 l 823 898 l 915 975 l 930 1041 "},"~":{"x_min":184.71875,"x_max":725,"ha":833,"o":"m 504 358 l 547 375 l 552 463 l 402 569 l 348 512 l 454 358 l 504 358 m 725 512 l 698 569 l 501 463 l 465 375 l 501 358 l 551 358 l 725 512 m 433 512 l 406 569 l 209 463 l 184 358 l 259 358 l 433 512 "},"¡":{"x_min":197.21875,"x_max":604.171875,"ha":833,"o":"m 243 -347 l 197 -288 l 354 394 l 475 394 l 377 -288 l 363 -347 l 243 -347 m 423 694 l 387 536 l 508 536 l 586 616 l 604 694 l 423 694 "},"[":{"x_min":188.890625,"x_max":813.890625,"ha":833,"o":"m 429 1041 l 498 1100 l 768 1100 l 813 1041 l 797 970 l 541 970 l 333 70 l 588 70 l 573 0 l 501 -58 l 231 -58 l 188 0 l 429 1041 "},"L":{"x_min":16.671875,"x_max":706.953125,"ha":833,"o":"m 240 127 l 433 968 l 376 1041 l 256 1041 l 233 940 l 277 912 l 90 101 l 33 75 l 16 0 l 691 0 l 706 68 l 650 143 l 240 127 "}," ":{"x_min":0,"x_max":0,"ha":833},"%":{"x_min":55.5625,"x_max":777.78125,"ha":833,"o":"m 58 23 l 648 1091 l 775 1020 l 184 -45 l 58 23 m 222 693 b 388 859 313 693 388 768 b 222 1026 388 951 313 1026 b 55 859 130 1026 55 951 b 222 693 55 768 130 693 m 222 797 b 159 859 187 797 159 823 b 222 922 159 895 187 922 b 284 859 258 922 284 895 b 222 797 284 823 258 797 m 611 13 b 777 180 702 13 777 88 b 611 347 777 272 702 347 b 444 180 519 347 444 272 b 611 13 444 88 519 13 m 611 118 b 548 180 576 118 548 144 b 611 243 548 216 576 243 b 673 180 647 243 673 216 b 611 118 673 144 647 118 "},"P":{"x_min":15.28125,"x_max":862.015625,"ha":833,"o":"m 804 948 b 594 1043 755 1006 681 1040 l 581 1043 l 500 1043 l 412 998 l 377 1041 l 255 1041 l 231 943 l 277 915 l 95 126 l 37 100 l 15 0 l 209 0 l 298 384 l 430 384 b 697 479 522 383 616 418 b 854 713 777 541 833 625 b 804 948 873 802 856 886 m 331 527 l 412 883 l 511 900 l 548 900 b 709 713 663 900 733 816 b 463 527 686 611 577 527 l 331 527 "},"À":{"x_min":18.0625,"x_max":812.40625,"ha":833,"o":"m 236 436 l 675 436 l 713 606 l 275 606 l 236 436 m 373 695 b 561 893 395 787 473 868 b 656 695 637 868 679 787 l 506 47 l 573 0 l 693 0 l 716 102 l 670 130 l 801 695 b 755 943 825 794 811 872 b 595 1041 727 979 688 1025 b 388 943 494 1025 433 979 b 229 695 302 872 252 794 l 98 130 l 41 102 l 18 0 l 137 0 l 223 47 l 373 695 m 761 1130 l 697 1062 l 500 1227 l 504 1319 l 565 1383 l 613 1341 l 761 1130 "},"_":{"x_min":86.109375,"x_max":747.21875,"ha":833,"o":"m 86 -138 l 86 -225 l 690 -225 l 747 -138 l 747 -81 l 690 -81 l 86 -138 "},"ñ":{"x_min":15.28125,"x_max":739.140625,"ha":833,"o":"m 669 126 l 730 395 b 691 606 750 476 736 551 b 513 694 651 661 588 691 l 425 694 l 356 638 l 311 695 l 175 695 l 152 597 l 197 569 l 95 126 l 37 100 l 15 0 l 151 0 l 222 58 l 320 486 l 437 551 l 468 551 b 587 395 555 551 608 483 l 509 58 l 554 0 l 690 0 l 712 100 l 669 126 m 438 863 l 484 883 l 468 980 l 284 1090 l 237 1023 l 384 863 l 438 863 m 631 1023 l 584 1090 l 404 980 l 387 883 l 433 863 l 487 863 l 631 1023 m 340 1023 l 293 1090 l 111 980 l 111 863 l 195 863 l 340 1023 "},"+":{"x_min":138.890625,"x_max":830.5625,"ha":833,"o":"m 494 902 l 333 208 l 463 208 l 625 902 l 494 902 m 773 638 l 155 581 l 138 509 l 743 509 l 813 568 l 830 638 l 773 638 "},"‚":{"x_min":268.0625,"x_max":486.109375,"ha":833,"o":"m 347 275 l 268 -69 l 334 -69 l 423 0 l 486 275 l 347 275 "},"Ë":{"x_min":15.28125,"x_max":930.5625,"ha":833,"o":"m 930 1041 l 255 1041 l 231 940 l 276 912 l 95 129 l 38 102 l 15 0 l 690 0 l 705 68 l 648 143 l 238 130 l 330 525 l 626 525 l 718 600 l 734 668 l 363 668 l 419 911 l 823 898 l 915 975 l 930 1041 "},"'":{"x_min":430.5625,"x_max":650,"ha":833,"o":"m 511 1041 l 430 697 l 497 697 l 586 766 l 650 1041 l 511 1041 "},"˛":{"x_min":254.171875,"x_max":573.609375,"ha":833,"o":"m 287 -220 l 327 -248 l 395 -181 l 470 0 l 381 0 l 254 -173 l 287 -220 m 548 -295 l 573 -216 l 363 -126 l 272 -166 l 284 -216 l 313 -261 l 548 -295 "},"T":{"x_min":181.9375,"x_max":904.171875,"ha":833,"o":"m 644 948 l 462 156 l 548 98 l 526 0 l 181 0 l 204 98 l 318 156 l 500 948 l 644 948 m 347 898 l 265 783 l 195 783 l 229 926 l 311 1041 l 872 1041 l 904 926 l 870 783 l 798 783 l 769 898 l 347 898 "},"j":{"x_min":5.671875,"x_max":863.890625,"ha":833,"o":"m 786 898 l 844 898 l 863 983 l 819 1041 l 711 1041 l 690 955 l 786 898 m 290 694 l 268 595 l 709 543 l 648 612 l 476 -137 l 565 15 l 316 -204 b 158 1 202 -204 131 -112 l 15 1 b 61 -244 -6 -91 9 -179 b 283 -347 111 -311 190 -347 l 359 -347 l 633 -75 l 800 644 l 705 538 l 829 608 l 848 694 l 290 694 "},"1":{"x_min":15.28125,"x_max":709.71875,"ha":833,"o":"m 659 984 l 531 1041 l 245 998 l 222 898 l 497 898 l 322 143 l 155 143 l 34 86 l 15 0 l 690 0 l 709 84 l 665 143 l 465 143 l 659 984 "},"›":{"x_min":259.71875,"x_max":583.328125,"ha":833,"o":"m 572 377 l 565 418 l 473 402 l 259 175 l 306 134 l 561 327 l 572 377 m 422 620 l 355 580 l 461 350 l 545 334 l 572 375 l 583 425 l 422 620 "},"ä":{"x_min":63.4375,"x_max":752.484375,"ha":833,"o":"m 602 466 b 579 519 605 479 606 498 l 577 520 b 455 551 551 543 508 551 b 316 515 402 551 355 538 b 290 498 309 511 302 505 l 220 605 b 263 636 234 616 248 626 b 488 695 330 673 409 695 b 687 640 568 695 638 677 b 741 568 713 619 731 595 b 747 466 754 537 755 501 l 659 86 l 704 58 l 691 1 l 583 1 l 536 58 l 461 1 l 365 1 b 141 59 277 1 197 22 b 77 130 113 79 91 102 b 68 230 62 161 59 195 b 125 331 76 266 95 301 b 222 402 150 359 183 383 b 470 461 294 440 383 461 l 538 461 l 591 419 l 602 466 m 561 283 l 473 318 l 437 318 b 266 279 375 318 315 304 b 211 230 231 262 213 243 b 244 183 208 219 218 200 b 398 144 281 158 334 144 l 433 144 l 536 177 l 561 283 m 415 1040 l 415 854 l 609 854 l 609 973 l 541 1040 l 415 1040 m 98 1040 l 98 854 l 293 854 l 293 973 l 225 1040 l 98 1040 "},"<":{"x_min":155.5625,"x_max":833.328125,"ha":833,"o":"m 165 515 l 155 472 l 237 452 l 833 738 l 812 800 l 195 561 l 165 515 m 672 194 l 722 252 l 258 540 l 166 519 l 156 476 l 165 429 l 672 194 "},"£":{"x_min":50,"x_max":838.890625,"ha":833,"o":"m 275 240 l 459 415 l 483 520 b 625 811 509 631 559 733 b 805 911 688 883 750 918 l 838 1055 b 661 1006 783 1058 719 1041 b 520 886 612 979 563 936 b 340 520 436 787 372 656 l 275 240 m 320 434 b 212 197 301 343 261 258 b 108 127 173 151 137 127 l 94 102 l 200 20 b 319 125 241 45 283 80 b 463 434 387 208 438 319 l 320 434 m 50 58 l 94 0 l 670 0 l 687 75 l 66 131 l 50 58 m 240 581 l 223 509 l 641 509 l 712 568 l 729 638 l 672 638 l 240 581 "},"t":{"x_min":131.9375,"x_max":843.0625,"ha":833,"o":"m 154 606 l 131 508 l 338 508 l 277 244 l 434 0 l 509 0 b 702 50 575 0 641 18 l 744 230 b 541 143 688 177 615 143 l 530 143 l 427 272 l 481 508 l 751 508 l 823 566 l 843 651 l 784 651 l 154 606 m 505 609 l 556 834 l 527 951 l 441 951 l 359 598 l 505 609 "},"ù":{"x_min":128.390625,"x_max":852.78125,"ha":833,"o":"m 830 595 l 852 695 l 716 695 l 645 637 l 531 147 l 637 259 l 430 144 l 400 144 b 279 298 312 144 259 212 l 358 637 l 313 694 l 177 695 l 155 595 l 198 569 l 136 298 b 175 87 118 219 131 144 b 354 0 215 34 279 4 l 443 0 l 511 58 l 556 0 l 693 0 l 715 100 l 670 127 l 772 568 l 830 595 m 501 922 l 452 854 l 216 1019 l 200 1111 l 245 1175 l 304 1133 l 501 922 "},"W":{"x_min":111.109375,"x_max":931.953125,"ha":833,"o":"m 811 1041 l 718 968 l 550 237 l 530 225 b 506 205 522 219 513 212 b 479 236 498 216 490 227 l 573 647 l 516 722 l 448 722 l 336 236 b 294 205 320 227 306 216 l 283 220 b 265 238 279 226 272 233 l 433 968 l 376 1041 l 256 1041 l 233 943 l 277 915 l 111 197 b 190 0 198 162 211 93 l 305 0 l 308 11 b 343 90 318 37 326 63 b 365 123 348 101 356 113 b 386 141 369 130 380 138 b 393 134 387 141 391 136 b 401 116 395 129 398 123 b 406 70 405 102 406 87 b 404 22 408 55 406 38 l 401 0 l 518 0 b 684 197 538 93 583 162 l 851 916 l 908 943 l 931 1041 l 811 1041 "},"ï":{"x_min":15.28125,"x_max":711.109375,"ha":833,"o":"m 666 144 l 565 116 l 516 143 l 630 634 l 586 694 l 244 694 l 220 594 l 470 568 l 372 143 l 302 111 l 106 144 l 34 84 l 15 1 l 73 1 l 240 1 l 354 1 l 418 29 l 470 1 l 584 1 l 633 1 l 691 1 l 711 84 l 666 144 m 415 1040 l 415 854 l 609 854 l 609 973 l 541 1040 l 415 1040 m 98 1040 l 98 854 l 293 854 l 293 973 l 225 1040 l 98 1040 "},">":{"x_min":101.390625,"x_max":779.171875,"ha":833,"o":"m 769 477 l 779 520 l 697 540 l 101 255 l 125 194 l 738 431 l 769 477 m 265 800 l 213 741 l 676 452 l 768 473 l 777 516 l 769 563 l 265 800 "},"v":{"x_min":102.78125,"x_max":851.390625,"ha":833,"o":"m 829 597 l 770 569 l 675 155 b 412 0 563 155 437 111 l 295 0 b 102 155 322 116 213 155 l 198 569 l 154 597 l 176 694 l 326 694 l 361 650 l 269 254 b 393 173 318 238 363 211 b 555 254 441 211 500 238 l 647 650 l 701 694 l 851 694 l 829 597 "},"û":{"x_min":100,"x_max":852.78125,"ha":833,"o":"m 830 595 l 852 695 l 716 695 l 645 637 l 531 147 l 637 259 l 430 144 l 400 144 b 279 298 312 144 259 212 l 358 637 l 313 694 l 177 695 l 155 595 l 198 569 l 136 298 b 175 87 118 219 131 144 b 354 0 215 34 279 4 l 443 0 l 511 58 l 556 0 l 693 0 l 715 100 l 670 127 l 772 568 l 830 595 m 350 1122 l 304 1102 l 320 1005 l 556 840 l 605 908 l 404 1122 l 350 1122 m 100 908 l 148 840 l 384 1005 l 401 1102 l 355 1122 l 301 1122 l 100 908 "},"Ò":{"x_min":94.734375,"x_max":851.296875,"ha":833,"o":"m 829 906 b 768 1002 815 947 794 979 b 661 1043 738 1029 701 1043 l 526 1043 b 400 1002 486 1043 443 1029 b 294 906 362 979 327 947 b 158 619 230 829 181 726 l 112 423 b 116 136 87 315 88 213 b 177 40 130 95 151 62 b 286 0 208 13 245 0 l 419 0 b 545 40 459 0 504 13 b 651 136 583 62 619 95 b 788 423 715 213 763 315 l 834 619 b 829 906 858 726 856 829 m 645 423 b 544 208 626 340 590 263 b 452 143 509 165 475 143 l 319 143 b 256 208 297 143 272 165 b 255 423 237 263 237 340 l 301 619 b 402 834 319 702 356 777 b 493 898 437 877 470 898 l 627 898 b 688 834 650 898 673 877 b 691 619 708 777 709 702 l 645 423 m 761 1130 l 697 1062 l 500 1227 l 504 1319 l 565 1383 l 613 1341 l 761 1130 "},"&":{"x_min":77.390625,"x_max":827.453125,"ha":833,"o":"m 811 484 l 680 484 l 631 273 l 523 526 b 820 790 659 544 790 656 b 608 1056 854 936 758 1056 b 380 977 497 1056 423 1013 b 268 790 325 931 284 865 l 263 770 l 331 612 b 247 561 301 597 273 581 b 144 456 206 530 172 495 b 86 327 116 416 95 372 b 83 197 75 281 75 237 b 138 93 94 158 112 123 b 365 0 190 33 272 0 l 477 0 l 565 63 l 594 -1 l 718 70 l 684 150 l 744 193 l 811 484 m 579 927 b 691 790 659 927 709 866 b 515 654 673 713 595 654 b 470 651 500 654 484 652 l 402 808 b 579 927 422 868 466 927 m 394 129 b 216 327 269 129 191 216 b 377 502 234 404 298 469 l 518 173 l 458 129 l 394 129 "},"˝":{"x_min":144.4375,"x_max":687.5,"ha":833,"o":"m 386 922 l 434 854 l 670 1019 l 687 1111 l 641 1175 l 583 1133 l 386 922 m 144 922 l 193 854 l 429 1019 l 445 1111 l 400 1175 l 341 1133 l 144 922 "},"I":{"x_min":15.28125,"x_max":930.5625,"ha":833,"o":"m 930 1041 l 255 1041 l 237 968 l 351 898 l 497 898 l 322 143 l 176 143 l 31 75 l 15 0 l 690 0 l 705 68 l 648 143 l 465 143 l 640 898 l 823 898 l 915 975 l 930 1041 "},"G":{"x_min":114.4375,"x_max":900,"ha":833,"o":"m 900 834 l 712 1043 l 602 1043 b 447 997 552 1043 500 1027 b 311 880 400 969 354 929 b 134 522 229 783 166 656 b 145 162 104 387 108 259 b 227 45 165 113 193 75 b 362 0 266 15 311 0 l 472 0 l 731 188 l 806 511 l 750 586 l 384 586 l 362 490 l 419 413 l 645 434 l 604 254 l 451 143 l 394 143 b 284 238 350 143 309 176 b 277 522 255 313 252 412 b 415 804 304 631 351 729 b 569 900 469 866 525 900 l 626 900 l 777 731 l 900 834 "},"`":{"x_min":262.5,"x_max":563.890625,"ha":833,"o":"m 563 922 l 515 854 l 279 1019 l 262 1111 l 308 1175 l 366 1133 l 563 922 "},"·":{"x_min":322.21875,"x_max":562.5,"ha":833,"o":"m 368 513 l 322 313 l 530 313 l 562 451 l 512 513 l 368 513 "},"r":{"x_min":15.28125,"x_max":802.578125,"ha":833,"o":"m 481 693 l 391 637 l 290 694 l 175 694 l 152 595 l 302 511 l 262 643 l 150 155 l 37 98 l 15 0 l 129 0 l 193 29 l 244 0 l 359 0 l 381 98 l 293 155 l 377 522 l 300 465 l 494 548 l 576 548 b 651 450 675 548 651 450 l 795 450 b 609 693 827 583 743 693 l 481 693 "},"¿":{"x_min":3.796875,"x_max":690.28125,"ha":833,"o":"m 61 -252 b 281 -347 111 -313 190 -347 l 391 -347 l 652 -158 l 690 2 l 375 -225 l 311 -225 b 134 -18 183 -225 106 -136 b 343 180 156 79 238 155 l 415 180 l 488 245 l 522 384 l 400 384 l 381 306 b 169 216 306 297 233 265 b 12 -18 87 154 31 70 b 61 -252 -8 -106 8 -190 m 430 694 l 394 536 l 501 536 l 579 616 l 597 694 l 430 694 "},"ý":{"x_min":45.0625,"x_max":850,"ha":833,"o":"m 713 694 l 641 636 l 538 173 l 637 272 l 426 143 l 395 143 b 276 298 308 143 256 211 l 354 636 l 311 694 l 175 694 l 151 594 l 195 568 l 133 298 b 172 87 115 218 127 143 b 351 0 212 33 276 2 l 440 0 l 594 150 l 536 176 l 469 -111 l 347 -204 l 316 -204 b 195 -48 230 -204 176 -136 l 52 -48 b 91 -259 34 -129 48 -204 b 270 -347 131 -313 195 -344 l 359 -347 l 605 -138 l 769 568 l 826 594 l 850 694 l 713 694 m 206 922 l 255 854 l 491 1019 l 508 1111 l 462 1175 l 404 1133 l 206 922 "},"x":{"x_min":37.5,"x_max":831.953125,"ha":833,"o":"m 522 336 l 526 358 l 716 100 l 591 0 l 404 255 l 423 255 l 118 0 l 37 100 l 347 358 l 343 336 l 152 595 l 277 695 l 470 440 l 450 438 l 751 695 l 831 595 l 522 336 "},"è":{"x_min":85.390625,"x_max":819.453125,"ha":833,"o":"m 751 275 l 819 569 l 758 694 l 522 694 b 252 593 430 694 334 658 b 94 347 172 527 116 440 b 138 101 73 254 88 166 b 362 0 191 36 270 0 l 598 0 l 718 126 l 744 240 l 581 129 l 391 129 b 222 331 269 129 200 209 l 138 275 l 751 275 m 656 419 l 172 419 l 229 362 b 493 565 263 484 370 565 l 655 565 l 761 470 l 695 584 l 656 419 m 501 922 l 452 854 l 216 1019 l 200 1111 l 245 1175 l 304 1133 l 501 922 "},"∞":{"x_min":74.96875,"x_max":789.484375,"ha":833,"o":"m 297 95 b 348 54 312 55 320 76 b 452 0 377 27 412 0 b 577 40 493 0 536 13 b 669 136 615 62 636 95 b 773 340 733 213 755 259 l 776 354 b 766 558 795 433 794 480 b 719 654 752 598 745 630 b 612 694 690 680 652 694 b 483 640 572 694 525 666 b 416 584 445 616 448 625 l 555 586 b 516 640 541 626 543 616 b 412 694 486 666 452 694 b 286 654 372 694 329 680 b 194 558 248 630 227 598 b 90 354 130 480 109 433 l 87 340 b 97 136 69 259 69 213 b 144 40 111 95 118 62 b 252 0 175 13 212 0 b 381 54 293 0 338 27 b 443 95 418 76 411 55 l 297 95 m 219 354 b 291 493 233 411 244 434 b 381 563 331 541 354 563 b 440 493 409 563 422 541 b 447 354 461 434 461 411 l 444 340 b 372 201 431 283 419 259 b 281 129 333 152 309 129 b 225 201 254 129 241 152 b 216 340 204 259 204 283 l 219 354 m 419 354 b 491 493 433 411 444 434 b 581 563 531 541 554 563 b 640 493 609 563 622 541 b 647 354 661 434 661 411 l 644 340 b 572 201 631 283 619 259 b 481 129 533 152 509 129 b 425 201 454 129 441 152 b 416 340 404 259 404 283 l 419 354 "},"÷":{"x_min":102.78125,"x_max":769.453125,"ha":833,"o":"m 123 373 l 102 287 l 679 287 l 750 345 l 769 430 l 712 430 l 123 373 m 320 158 l 284 0 l 423 0 l 445 100 l 400 158 l 320 158 m 320 158 l 284 0 l 423 0 l 445 100 l 400 158 l 320 158 m 444 694 l 408 536 l 547 536 l 569 636 l 523 694 l 444 694 m 444 694 l 408 536 l 547 536 l 569 636 l 523 694 l 444 694 "},"h":{"x_min":15.28125,"x_max":739.140625,"ha":833,"o":"m 669 126 l 730 395 b 691 606 750 476 736 551 b 513 694 651 661 588 691 l 425 694 l 354 625 l 436 984 l 391 1041 l 255 1041 l 231 943 l 277 915 l 95 126 l 37 100 l 15 0 l 151 0 l 222 58 l 319 479 l 437 551 l 468 551 b 587 395 555 551 608 483 l 509 58 l 554 0 l 690 0 l 712 100 l 669 126 "},".":{"x_min":250,"x_max":488.890625,"ha":833,"o":"m 294 193 l 250 0 l 458 0 l 488 134 l 429 193 l 294 193 "},";":{"x_min":229.171875,"x_max":602.78125,"ha":833,"o":"m 436 701 l 397 529 l 577 529 l 602 638 l 552 701 l 436 701 m 229 -13 l 284 -84 l 500 93 l 519 180 l 466 248 l 409 202 l 229 -13 "},"f":{"x_min":113.890625,"x_max":918.0625,"ha":833,"o":"m 500 613 l 534 769 l 669 898 l 709 898 b 876 800 787 898 847 859 l 918 986 b 743 1043 872 1023 811 1043 l 666 1043 l 651 1026 l 390 769 l 345 573 l 500 613 m 155 608 l 131 508 l 330 508 l 250 156 l 136 98 l 113 0 l 227 0 l 291 29 l 344 0 l 458 0 l 480 98 l 394 156 l 475 508 l 694 508 l 765 568 l 784 652 l 727 652 l 155 608 "},"“":{"x_min":337.5,"x_max":794.453125,"ha":833,"o":"m 726 765 l 794 1062 l 715 1062 l 641 1004 l 587 765 l 726 765 m 476 765 l 544 1062 l 465 1062 l 391 1004 l 337 765 l 476 765 "},"A":{"x_min":15.28125,"x_max":809.625,"ha":833,"o":"m 668 130 l 798 695 b 752 943 822 794 808 872 b 593 1041 725 979 686 1025 b 386 943 491 1025 430 979 b 226 695 300 872 250 794 l 95 130 l 38 102 l 15 0 l 134 0 l 220 47 l 311 436 l 594 436 l 504 47 l 570 0 l 690 0 l 713 102 l 668 130 m 350 606 l 370 695 b 558 893 391 787 470 868 b 654 695 636 868 675 787 l 633 606 l 350 606 "},"6":{"x_min":113.578125,"x_max":886.109375,"ha":833,"o":"m 626 900 l 766 748 l 886 855 l 712 1043 l 591 1043 b 438 997 541 1043 490 1027 b 306 879 391 968 348 929 b 134 522 227 783 166 655 b 141 163 104 387 106 261 b 219 47 161 115 186 75 b 351 0 256 16 301 0 b 611 95 441 0 533 34 b 763 329 690 158 744 241 b 719 563 784 418 769 501 b 502 659 669 625 593 659 b 290 569 431 659 359 627 b 413 806 318 661 359 741 b 558 900 480 887 534 900 l 626 900 m 383 144 b 281 237 359 144 312 156 b 262 329 272 265 265 295 b 469 515 326 445 408 515 b 620 329 577 515 645 433 b 383 144 597 226 493 144 "},"‘":{"x_min":445.828125,"x_max":665.28125,"ha":833,"o":"m 584 695 l 665 1041 l 598 1041 l 509 970 l 445 695 l 584 695 "},"O":{"x_min":94.734375,"x_max":851.296875,"ha":833,"o":"m 829 906 b 768 1002 815 947 794 979 b 661 1043 738 1029 701 1043 l 526 1043 b 400 1002 486 1043 443 1029 b 294 906 362 979 327 947 b 158 619 230 829 181 726 l 112 423 b 116 136 87 315 88 213 b 177 40 130 95 151 62 b 286 0 208 13 245 0 l 419 0 b 545 40 459 0 504 13 b 651 136 583 62 619 95 b 788 423 715 213 763 315 l 834 619 b 829 906 858 726 856 829 m 645 423 b 544 208 626 340 590 263 b 452 143 509 165 475 143 l 319 143 b 256 208 297 143 272 165 b 255 423 237 263 237 340 l 301 619 b 402 834 319 702 356 777 b 493 898 437 877 470 898 l 627 898 b 688 834 650 898 673 877 b 691 619 708 777 709 702 l 645 423 "},"n":{"x_min":15.28125,"x_max":739.140625,"ha":833,"o":"m 669 126 l 730 395 b 691 606 750 476 736 551 b 513 694 651 661 588 691 l 425 694 l 356 638 l 311 695 l 175 695 l 152 597 l 197 569 l 95 126 l 37 100 l 15 0 l 151 0 l 222 58 l 320 486 l 437 551 l 468 551 b 587 395 555 551 608 483 l 509 58 l 554 0 l 690 0 l 712 100 l 669 126 "},"∅":{"x_min":26.390625,"x_max":840.28125,"ha":833,"o":"m 26 87 l 81 0 l 840 606 l 786 695 l 26 87 m 626 340 b 544 208 615 290 594 269 b 452 143 509 165 475 143 l 319 143 b 256 208 297 143 272 165 b 236 340 236 269 225 290 l 238 354 b 322 486 251 402 272 425 b 412 550 356 529 390 550 l 547 550 b 608 486 569 550 593 529 b 629 354 629 425 641 402 l 626 340 m 748 558 b 687 654 734 598 713 630 b 580 694 658 680 620 694 l 445 694 b 319 654 405 694 362 680 b 213 558 281 630 247 598 b 95 354 150 480 115 433 l 93 340 b 116 136 75 259 88 213 b 177 40 130 95 151 62 b 286 0 208 13 245 0 l 419 0 b 545 40 459 0 504 13 b 651 136 583 62 619 95 b 769 340 715 213 751 259 l 772 354 b 748 558 791 433 776 480 "},"3":{"x_min":61.109375,"x_max":874.0625,"ha":833,"o":"m 61 201 l 259 0 l 388 0 b 620 83 469 0 551 29 b 759 288 693 138 741 211 b 716 495 777 366 762 440 b 690 520 708 504 700 512 b 727 545 704 529 716 537 b 866 752 800 601 848 673 b 823 958 884 830 869 902 b 629 1041 779 1012 709 1041 l 500 1041 l 222 840 l 291 733 l 519 898 l 595 898 b 723 752 686 898 741 833 b 525 593 704 672 615 593 l 309 593 l 294 523 l 350 447 l 504 447 b 616 288 587 443 633 365 b 420 143 597 208 511 143 l 344 143 l 180 309 l 61 201 "},"9":{"x_min":58.328125,"x_max":831.15625,"ha":833,"o":"m 475 527 b 323 713 366 527 298 611 b 561 900 347 816 452 900 b 662 805 586 900 631 886 b 681 713 672 777 679 747 b 475 527 618 598 536 527 m 318 143 l 177 295 l 58 187 l 231 0 l 354 0 b 505 47 404 0 454 15 b 637 163 551 75 595 113 b 808 522 718 259 777 387 b 802 879 840 655 838 783 b 725 995 784 929 756 968 b 594 1043 687 1027 644 1043 b 333 947 504 1043 411 1009 b 179 713 255 884 200 802 b 225 480 158 625 176 543 b 443 384 275 418 352 384 b 652 473 511 384 583 415 b 530 237 626 383 584 301 b 386 143 463 156 411 143 l 318 143 "},"l":{"x_min":15.28125,"x_max":711.109375,"ha":833,"o":"m 565 115 l 516 141 l 711 983 l 666 1041 l 325 1041 l 305 956 l 629 925 l 569 993 l 372 141 l 302 111 l 105 143 l 33 83 l 15 0 l 354 0 l 418 29 l 470 0 l 691 0 l 709 83 l 665 143 l 565 115 "},"¤":{"x_min":45.828125,"x_max":887.5,"ha":833,"o":"m 750 677 b 694 762 736 712 718 740 b 593 800 668 786 630 800 l 486 800 b 366 762 448 800 402 786 b 273 677 333 740 301 712 b 172 500 220 615 187 569 l 169 488 b 188 311 152 419 165 373 b 243 226 200 276 219 247 b 344 188 269 202 306 188 l 451 188 b 570 226 490 188 533 202 b 665 311 602 247 636 276 b 765 488 716 373 748 419 l 768 500 b 750 677 783 569 772 615 m 45 219 l 126 119 l 345 301 l 280 415 l 45 219 m 500 304 l 637 119 l 763 219 l 615 420 l 500 304 m 425 677 l 295 854 l 169 754 l 304 568 l 425 677 m 618 488 b 552 386 608 450 594 436 b 484 336 523 351 502 336 l 377 336 b 333 386 361 336 347 351 b 316 488 315 436 306 450 l 319 500 b 383 602 327 538 343 552 b 451 651 412 637 431 651 l 558 651 b 602 602 576 651 590 637 b 620 500 620 552 629 538 l 618 488 m 656 559 l 887 754 l 806 854 l 597 679 l 656 559 "},"4":{"x_min":169.4375,"x_max":930.5625,"ha":833,"o":"m 930 1041 l 822 1041 l 736 984 l 645 593 l 318 593 l 408 984 l 363 1041 l 255 1041 l 231 943 l 263 915 l 169 506 l 213 450 l 612 450 l 538 126 l 494 100 l 470 0 l 690 0 l 712 100 l 681 126 l 863 915 l 906 943 l 930 1041 "},"p":{"x_min":0,"x_max":776.828125,"ha":833,"o":"m 722 594 b 500 695 672 659 593 695 l 425 695 l 329 637 l 283 695 l 175 695 l 152 595 l 197 568 l 0 -288 l 44 -347 l 127 -347 l 250 177 l 176 137 l 265 0 l 340 0 b 609 102 433 0 529 36 b 768 348 690 168 745 255 b 722 594 788 440 772 527 m 344 144 l 187 265 l 243 147 l 336 550 l 227 423 l 437 551 l 466 551 b 625 348 580 551 650 462 b 373 144 598 234 487 144 l 344 144 "},"‡":{"x_min":118.0625,"x_max":802.78125,"ha":833,"o":"m 527 1041 l 268 -83 l 398 -83 l 658 1041 l 527 1041 m 745 694 l 212 637 l 195 565 l 716 565 l 786 623 l 802 694 l 745 694 m 669 361 l 134 304 l 118 231 l 638 231 l 709 290 l 726 361 l 669 361 "},"à":{"x_min":63.4375,"x_max":752.484375,"ha":833,"o":"m 602 466 b 579 519 605 479 606 498 l 577 520 b 455 551 551 543 508 551 b 316 515 402 551 355 538 b 290 498 309 511 302 505 l 220 605 b 263 636 234 616 248 626 b 488 695 330 673 409 695 b 687 640 568 695 638 677 b 741 568 713 619 731 595 b 747 466 754 537 755 501 l 659 86 l 704 58 l 691 1 l 583 1 l 536 58 l 461 1 l 365 1 b 141 59 277 1 197 22 b 77 130 113 79 91 102 b 68 230 62 161 59 195 b 125 331 76 266 95 301 b 222 402 150 359 183 383 b 470 461 294 440 383 461 l 538 461 l 591 419 l 602 466 m 561 283 l 473 318 l 437 318 b 266 279 375 318 315 304 b 211 230 231 262 213 243 b 244 183 208 219 218 200 b 398 144 281 158 334 144 l 433 144 l 536 177 l 561 283 m 501 922 l 452 854 l 216 1019 l 200 1111 l 245 1175 l 304 1133 l 501 922 "},"Ü":{"x_min":148.90625,"x_max":933.328125,"ha":833,"o":"m 234 943 l 280 916 l 166 425 b 170 136 141 316 143 213 b 231 40 184 95 205 63 b 340 1 262 15 300 1 l 372 1 b 497 40 412 1 455 15 b 602 136 534 63 569 95 b 740 425 666 213 715 316 l 854 916 l 909 943 l 933 1041 l 812 1041 l 720 968 l 595 425 b 495 208 576 340 541 265 b 405 144 461 166 427 144 l 373 144 b 311 208 351 144 326 166 b 309 425 293 265 290 340 l 434 968 l 379 1041 l 258 1041 l 234 943 m 716 1305 l 673 1119 l 868 1119 l 895 1238 l 843 1305 l 716 1305 m 400 1305 l 356 1119 l 551 1119 l 579 1238 l 526 1305 l 400 1305 "},"ó":{"x_min":84.9375,"x_max":780.953125,"ha":833,"o":"m 626 340 b 544 208 615 290 594 269 b 452 143 509 165 475 143 l 319 143 b 256 208 297 143 272 165 b 236 340 236 269 225 290 l 238 354 b 322 486 251 402 272 425 b 412 550 356 529 390 550 l 547 550 b 608 486 569 550 593 529 b 629 354 629 425 641 402 l 626 340 m 748 558 b 687 654 734 598 713 630 b 580 694 658 680 620 694 l 445 694 b 319 654 405 694 362 680 b 213 558 281 630 247 598 b 95 354 150 480 115 433 l 93 340 b 116 136 75 259 88 213 b 177 40 130 95 151 62 b 286 0 208 13 245 0 l 419 0 b 545 40 459 0 504 13 b 651 136 583 62 619 95 b 769 340 715 213 751 259 l 772 354 b 748 558 791 433 776 480 m 206 922 l 255 854 l 491 1019 l 508 1111 l 462 1175 l 404 1133 l 206 922 "}}}
